<?xml version="1.0" encoding="utf-8"?>
<!-- Generator: Adobe Illustrator 19.0.0, SVG Export Plug-In . SVG Version: 6.00 Build 0)  -->
<svg version="1.1" id="Layer_1" xmlns="http://www.w3.org/2000/svg" xmlns:xlink="http://www.w3.org/1999/xlink" x="0px" y="0px"
	 viewBox="-437 239 84 84" style="enable-background:new -437 239 84 84;" xml:space="preserve">
<style type="text/css">
	.st0{fill:none;}
	.st1{fill:#FFFFFF;}
</style>
<g id="XMLID_1828_">
	<path id="XMLID_2130_" class="st0" d="M-395.1,239c-23.1,0-41.9,18.8-41.9,42s18.8,42,41.9,42c23.1,0,41.9-18.8,41.9-42
		S-372,239-395.1,239z"/>
	<g id="XMLID_2112_">
		<path id="XMLID_1732_" class="st1" d="M-358.8,259.9c-3.8-6.4-8.9-11.5-15.3-15.3c-6.4-3.8-13.5-5.6-21-5.6s-14.6,1.9-21,5.6
			c-6.4,3.8-11.5,8.9-15.3,15.3s-5.6,13.5-5.6,21.1c0,9.2,2.7,17.4,8,24.7c5.3,7.3,12.2,12.4,20.7,15.2c1,0.2,1.7,0.1,2.2-0.4
			c0.5-0.4,0.7-1,0.7-1.6c0-0.1,0-1.1,0-3s0-3.5,0-4.9l-1.3,0.2c-0.8,0.1-1.8,0.2-3,0.2c-1.2,0-2.5-0.1-3.8-0.4
			c-1.3-0.2-2.5-0.8-3.7-1.6c-1.1-0.9-1.9-2-2.4-3.4l-0.5-1.3c-0.4-0.8-0.9-1.8-1.7-2.8c-0.8-1-1.6-1.7-2.4-2.1l-0.4-0.3
			c-0.3-0.2-0.5-0.4-0.7-0.7c-0.2-0.3-0.4-0.5-0.5-0.8s0-0.5,0.3-0.6c0.3-0.2,0.8-0.2,1.6-0.2l1.1,0.2c0.7,0.1,1.6,0.6,2.7,1.3
			c1.1,0.7,2,1.7,2.7,2.8c0.8,1.5,1.8,2.6,3,3.4c1.2,0.8,2.4,1.2,3.6,1.2s2.2-0.1,3.1-0.3c0.9-0.2,1.7-0.5,2.5-0.8
			c0.3-2.4,1.2-4.3,2.7-5.6c-2.1-0.2-3.9-0.5-5.6-1c-1.7-0.4-3.4-1.1-5.1-2.1c-1.8-1-3.2-2.2-4.4-3.7s-2.1-3.4-2.9-5.7
			c-0.7-2.4-1.1-5.1-1.1-8.2c0-4.4,1.4-8.2,4.3-11.3c-1.3-3.3-1.2-7,0.4-11.2c1.1-0.3,2.6-0.1,4.7,0.7c2.1,0.8,3.6,1.5,4.6,2.1
			s1.7,1.1,2.3,1.5c3.4-0.9,6.9-1.4,10.5-1.4c3.6,0,7.1,0.5,10.5,1.4l2.1-1.3c1.4-0.9,3.1-1.7,5-2.4c1.9-0.7,3.4-0.9,4.4-0.6
			c1.6,4.1,1.8,7.8,0.4,11.2c2.9,3.1,4.3,6.9,4.3,11.3c0,3.1-0.4,5.8-1.1,8.2c-0.7,2.4-1.7,4.3-2.9,5.7c-1.2,1.4-2.7,2.7-4.4,3.6
			c-1.8,1-3.5,1.7-5.1,2.1c-1.7,0.4-3.5,0.8-5.6,1c1.9,1.6,2.8,4.2,2.8,7.8v11.5c0,0.7,0.2,1.2,0.7,1.6s1.2,0.6,2.2,0.4
			c8.5-2.8,15.4-7.9,20.7-15.2c5.3-7.3,8-15.5,8-24.7C-353.2,273.4-355.1,266.4-358.8,259.9z"/>
	</g>
</g>
</svg>
