<?xml version="1.0" encoding="utf-8"?>
<!-- Generator: Adobe Illustrator 19.0.0, SVG Export Plug-In . SVG Version: 6.00 Build 0)  -->
<svg version="1.1" id="Layer_1" xmlns="http://www.w3.org/2000/svg" xmlns:xlink="http://www.w3.org/1999/xlink" x="0px" y="0px"
	 viewBox="0 0 84 84" style="enable-background:new 0 0 84 84;" xml:space="preserve">
<style type="text/css">
	.st0{fill:#FFFFFF;}
</style>
<g id="XMLID_122_">
	<path id="XMLID_124_" class="st0" d="M29.6,38.2c2.5-0.1,3.9-1.6,4-4.1c0-1.6-0.5-2.9-2.1-3.6c-0.7-0.3-1.5-0.5-2.2-0.5
		c-2.8-0.1-5.5-0.1-8.3-0.1c0,0-0.1,0-0.2,0c0,2.8,0,5.5,0,8.3c0.1,0,0.2,0,0.2,0C23.9,38.2,26.8,38.3,29.6,38.2z"/>
	<path id="XMLID_125_" class="st0" d="M60.7,38.7c-1.7-0.6-3.4-0.6-5.1,0.1c-1.8,0.8-3.2,2.7-3.1,5c3.8,0,7.7,0,11.5,0
		c-0.1-0.4-0.1-0.8-0.2-1.1C63.3,40.9,62.5,39.4,60.7,38.7z"/>
	<path id="XMLID_126_" class="st0" d="M32.4,44.2c-0.8-0.3-1.6-0.5-2.5-0.5c-2.9-0.1-5.8,0-8.8,0c-0.1,0-0.2,0-0.4,0
		c0,3.3,0,6.5,0,9.8c0.1,0,0.2,0,0.3,0c2.8,0,5.5,0,8.3,0c0.6,0,1.3-0.1,1.9-0.2c1.7-0.4,3.1-1.2,3.4-3c0.2-0.8,0.2-1.7,0.1-2.6
		C34.8,46,34,44.8,32.4,44.2z"/>
	<path id="XMLID_341_" class="st0" d="M42,0C18.8,0,0,18.8,0,42c0,23.2,18.8,42,42,42c23.2,0,42-18.8,42-42C84,18.8,65.2,0,42,0z
		 M50.9,26.3c4.8,0,9.6,0,14.4,0c0,1.1,0,2.3,0,3.4c-4.8,0-9.6,0-14.4,0C50.9,28.6,50.9,27.4,50.9,26.3z M41.6,54.3
		c-1.2,2-3,3.3-5.1,4.2c-2.1,0.8-4.2,1.1-6.4,1.1c-5.6,0-11.1,0-16.7,0c-0.1,0-0.2,0-0.4,0c0-0.2,0-0.4,0-0.5c0-11.6,0-23.1,0-34.7
		c0-0.4,0.1-0.5,0.6-0.5c5.3,0,10.6,0,15.8,0c2.2,0,4.4,0.1,6.5,0.9c1.7,0.6,3.4,1.5,4.2,3.2c1.5,3,1.6,6,0,8.9
		c-0.7,1.2-1.7,2.1-3,2.8c-0.2,0.1-0.5,0.3-0.8,0.4c0.2,0.1,0.3,0.1,0.4,0.2c3.4,1.1,5.3,3.4,5.9,6.9C43.1,49.6,42.9,52,41.6,54.3z
		 M71,48.3c-6.2,0-12.4,0-18.6,0c-0.1,3.3,1.5,6,5,6.5c1.9,0.2,3.7-0.1,5.3-1.2c0.7-0.5,1.2-1.1,1.5-1.8c0.1-0.1,0.2-0.3,0.3-0.3
		c2,0,4,0,6,0c-0.2,0.5-0.4,1-0.6,1.5c-1.3,2.9-3.2,5.1-6.2,6.3c-2.2,0.8-4.4,1-6.7,0.8c-2.3-0.2-4.5-0.8-6.4-2.2
		c-2.8-2-4.5-4.7-5.1-8.1c-0.5-2.8-0.5-5.6,0.5-8.4c1.6-4.2,4.4-7.1,8.9-8.2c2.6-0.6,5.1-0.6,7.6,0.2c3.6,1.2,6.1,3.7,7.4,7.3
		C70.9,43.2,71.1,45.7,71,48.3z"/>
</g>
</svg>
