<?xml version="1.0" encoding="utf-8"?>
<!-- Generator: Adobe Illustrator 19.0.0, SVG Export Plug-In . SVG Version: 6.00 Build 0)  -->
<svg version="1.1" id="Layer_1" xmlns="http://www.w3.org/2000/svg" xmlns:xlink="http://www.w3.org/1999/xlink" x="0px" y="0px"
	 viewBox="0 0 186 74" style="enable-background:new 0 0 186 74;" xml:space="preserve">
<style type="text/css">
	.st0{fill:#EDD2A3;}
	.st1{fill:none;stroke:#301E41;stroke-width:2;stroke-miterlimit:10;}
	.st2{fill:#301E41;}
	.st3{fill:none;stroke:#301E41;stroke-width:3;stroke-linecap:round;stroke-miterlimit:10;}
	.st4{fill:none;stroke:#301E41;stroke-width:3;stroke-linecap:round;stroke-miterlimit:10;stroke-dasharray:0,7.0966;}
</style>
<g id="XMLID_1788_">
	<path id="XMLID_1821_" class="st0" d="M186,69.3c-1.6,0-2.8-1.3-2.8-2.9c0-1.6,1.1-2.9,2.7-2.9c0,0,0,0,0,0v-2.6c0,0,0.1,0,0.1,0
		c-1.6,0-2.8-1.3-2.8-2.9c0-1.6,1.1-2.9,2.7-2.9c0,0,0,0,0,0v-4.3c-8,0-14.1-6.3-14.1-14.2c0-7.8,6.1-14.2,14.1-14.2v-4.6
		c0,0,0.1,0,0.1,0c-1.6,0-2.8-1.3-2.8-2.9c0-1.6,1.1-2.9,2.7-2.9c0,0,0,0,0,0V9.6c0,0,0.1,0,0.1,0c-1.6,0-2.8-1.3-2.8-2.9
		c0-1.6,1.1-2.9,2.7-2.9c0,0,0,0,0,0V0H0v3.9c0,0,0.2,0,0.4,0c1.6,0,2.9,1.3,2.9,2.9c0,1.6-1.3,2.9-2.9,2.9c-0.1,0-0.4,0-0.4,0v2.6
		c0,0,0.2,0,0.4,0c1.6,0,2.9,1.3,2.9,2.9c0,1.6-1.3,2.9-2.9,2.9c-0.1,0-0.4,0-0.4,0v4.6c0,0,0.6,0,1,0c7.8,0,14.1,6.3,14.1,14.2
		c0,7.8-6.3,14.2-14.1,14.2c-0.3,0-1,0-1,0v4.4c0,0,0.2,0,0.4,0c1.6,0,2.9,1.3,2.9,2.9C3.2,59.7,2,61,0.4,61c-0.1,0-0.4,0-0.4,0v2.6
		c0,0,0.2,0,0.4,0c1.6,0,2.9,1.3,2.9,2.9c0,1.6-1.3,2.9-2.9,2.9c-0.1,0-0.4,0-0.4,0V74h185.9v-4.7C185.9,69.3,186,69.3,186,69.3z"/>
	<g id="XMLID_1791_">
		<rect id="XMLID_1820_" x="14.1" y="8.6" class="st1" width="157.7" height="12.9"/>
		<rect id="XMLID_1815_" x="14.1" y="52.5" class="st1" width="157.7" height="12.9"/>
		<g id="XMLID_365_">
			<path id="XMLID_494_" class="st2" d="M37.8,44.3V26.6h3.8c0.6,0,1.1,0.1,1.6,0.3c0.5,0.2,0.9,0.4,1.1,0.7c0.3,0.3,0.5,0.6,0.7,1
				c0.2,0.4,0.3,0.8,0.4,1.2c0.1,0.4,0.1,0.9,0.1,1.3c0,0.7-0.2,1.4-0.5,2.1c-0.3,0.7-0.8,1.2-1.4,1.5c0.4,0.2,0.8,0.4,1.1,0.8
				c0.3,0.3,0.5,0.7,0.7,1.1s0.3,0.8,0.4,1.2c0.1,0.4,0.1,0.8,0.1,1.2c0,0.6,0,1.2-0.1,1.6c-0.1,0.5-0.2,0.9-0.3,1.4
				c-0.2,0.5-0.4,0.9-0.7,1.2c-0.3,0.3-0.7,0.6-1.2,0.7c-0.5,0.2-1.1,0.3-1.7,0.3H37.8z M39.4,34.2h2.5c0.4,0,0.7-0.1,1-0.3
				c0.3-0.2,0.5-0.4,0.6-0.7c0.2-0.3,0.3-0.6,0.3-1s0.1-0.7,0.1-1.1c0-2.2-0.8-3.3-2.5-3.3h-2V34.2z M39.4,43.1h2.8
				c0.4,0,0.7-0.1,0.9-0.2s0.5-0.3,0.6-0.6c0.2-0.2,0.3-0.5,0.4-0.9c0.1-0.4,0.2-0.7,0.2-1.1c0-0.4,0.1-0.8,0.1-1.3
				c0-0.4,0-0.8-0.1-1.1c0-0.3-0.1-0.7-0.2-1c-0.1-0.3-0.2-0.6-0.4-0.8c-0.2-0.2-0.4-0.4-0.6-0.5c-0.3-0.1-0.6-0.2-0.9-0.2h-2.8
				V43.1z"/>
			<path id="XMLID_841_" class="st2" d="M47.8,41.6V32h1.6v9.7c0,0.6,0.1,1.1,0.4,1.3s0.6,0.4,0.9,0.4c0.3,0,0.7-0.1,1-0.3
				c0.4-0.2,0.7-0.5,1-0.9V32h1.5v12.3h-1.5v-1.2c-0.3,0.5-0.7,0.8-1.2,1.1c-0.5,0.2-0.9,0.4-1.4,0.4c-0.6,0-1.1-0.3-1.6-0.8
				C48,43.3,47.8,42.6,47.8,41.6z"/>
			<path id="XMLID_849_" class="st2" d="M56.6,47.3v-1.3c0.8-0.1,1.4-0.2,1.8-0.4c0.4-0.2,0.6-0.5,0.6-0.9c0-0.5,0-1-0.1-1.5
				L56.2,32h1.6l2.1,10.3L61.9,32h1.6l-3.1,13.1c-0.2,0.8-0.6,1.4-1.2,1.7C58.6,47.1,57.7,47.3,56.6,47.3L56.6,47.3z"/>
			<path id="XMLID_881_" class="st2" d="M69.6,41.4v-8.5h-1.7V32h1.7v-4.4h1.5V32h2v0.9h-2v8.4c0,0.3,0,0.5,0,0.7
				c0,0.2,0,0.3,0.1,0.5c0,0.2,0.1,0.3,0.2,0.4c0.1,0.1,0.2,0.2,0.3,0.2c0.1,0.1,0.3,0.1,0.5,0.1c0.3,0,0.6,0,0.9-0.1v1.1
				c-0.5,0.1-0.9,0.2-1.3,0.2c-0.4,0-0.7-0.1-1-0.2c-0.3-0.1-0.5-0.3-0.6-0.4c-0.1-0.2-0.3-0.4-0.3-0.7c-0.1-0.3-0.1-0.6-0.2-0.8
				S69.6,41.7,69.6,41.4z"/>
			<path id="XMLID_1137_" class="st2" d="M74.9,29.2v-1.8h1.5v1.8H74.9z M74.9,44.3V32h1.5v12.3H74.9z"/>
			<path id="XMLID_1147_" class="st2" d="M78.7,38.5v-0.6c0-0.5,0-1,0-1.3c0-0.3,0-0.7,0.1-1.2c0-0.5,0.1-0.9,0.2-1.2
				c0.1-0.3,0.2-0.6,0.4-1s0.4-0.6,0.6-0.8c0.2-0.2,0.5-0.4,0.9-0.5s0.8-0.2,1.2-0.2c0.5,0,0.9,0.1,1.2,0.2c0.4,0.2,0.6,0.4,0.9,0.6
				c0.2,0.2,0.4,0.6,0.5,0.9s0.2,0.8,0.3,1.1s0.1,0.8,0.1,1.3c0,0,0,0,0,0.1c0,0,0,0,0,0.1h-1.5v-0.1c0-1.2-0.2-2-0.4-2.5
				c-0.2-0.5-0.6-0.7-1.2-0.7c-0.3,0-0.5,0-0.7,0.1c-0.2,0.1-0.4,0.2-0.5,0.4c-0.1,0.2-0.2,0.4-0.3,0.7c-0.1,0.2-0.1,0.6-0.2,1
				c0,0.4-0.1,0.8-0.1,1.3c0,0.4,0,1,0,1.6v0.6c0,1.9,0.1,3.2,0.4,4c0.2,0.7,0.7,1.1,1.5,1.1c0.5,0,0.9-0.2,1.2-0.7
				c0.2-0.5,0.4-1.3,0.4-2.5v-0.1h1.5v0.1c0,0.5-0.1,1-0.1,1.4c-0.1,0.4-0.2,0.8-0.3,1.2c-0.1,0.4-0.3,0.7-0.5,1
				c-0.2,0.2-0.5,0.5-0.9,0.6c-0.4,0.2-0.8,0.2-1.3,0.2c-0.4,0-0.8,0-1.1-0.1s-0.6-0.2-0.8-0.4c-0.2-0.2-0.4-0.4-0.6-0.6
				c-0.2-0.2-0.3-0.5-0.4-0.8C79,42.3,79,42,78.9,41.8c-0.1-0.2-0.1-0.6-0.1-1.1s0-0.8,0-1.1C78.7,39.4,78.7,39,78.7,38.5z"/>
			<path id="XMLID_1151_" class="st2" d="M87.2,44.3V26.6h1.5v11.2l3.8-5.8h1.7l-2.9,4.7l2.9,7.6h-1.6l-2.4-6.7l-1.5,1.9v4.8H87.2z"
				/>
			<path id="XMLID_1153_" class="st2" d="M95.4,38.6v-1.7c0-0.9,0.1-1.6,0.2-2.2c0.1-0.6,0.3-1.1,0.5-1.5c0.2-0.4,0.4-0.7,0.7-0.9
				c0.3-0.2,0.6-0.4,0.9-0.5c0.3-0.1,0.7-0.1,1.1-0.1c1.1,0,1.9,0.4,2.4,1.2c0.5,0.8,0.7,2,0.7,3.7c0,0.5,0,0.9,0,1.3H97v1.9
				c0,0.8,0,1.5,0.1,2c0.1,0.5,0.2,0.9,0.4,1.2c0.2,0.3,0.4,0.4,0.6,0.5c0.2,0.1,0.5,0.1,0.8,0.1c0.5,0,0.8-0.2,1.2-0.7
				c0.3-0.5,0.5-1.2,0.5-2.3h1.4c0,0.5-0.1,0.9-0.2,1.2c-0.1,0.4-0.2,0.7-0.3,1.1c-0.1,0.4-0.3,0.7-0.5,0.9
				c-0.2,0.2-0.5,0.4-0.8,0.6c-0.3,0.2-0.7,0.2-1.2,0.2c-0.9,0-1.5-0.2-2-0.5c-0.5-0.3-0.8-0.9-1.1-1.8
				C95.5,41.4,95.4,40.2,95.4,38.6z M97,37.1h3.4c0-0.3,0-0.5,0-0.8s0-0.6,0-0.8c0-0.3,0-0.6-0.1-0.8c0-0.3-0.1-0.5-0.1-0.7
				c-0.1-0.2-0.2-0.4-0.3-0.6c-0.1-0.2-0.2-0.3-0.4-0.4c-0.2-0.1-0.4-0.1-0.6-0.1c-0.4,0-0.7,0.1-0.9,0.2c-0.2,0.1-0.4,0.3-0.6,0.5
				c-0.1,0.2-0.2,0.5-0.3,0.9S97,35.2,97,35.5C97,35.9,97,36.4,97,37.1z"/>
			<path id="XMLID_1720_" class="st2" d="M104.5,41.4v-8.5h-1.7V32h1.7v-4.4h1.5V32h2v0.9h-2v8.4c0,0.3,0,0.5,0,0.7
				c0,0.2,0,0.3,0.1,0.5c0,0.2,0.1,0.3,0.2,0.4c0.1,0.1,0.2,0.2,0.3,0.2c0.1,0.1,0.3,0.1,0.5,0.1c0.3,0,0.6,0,0.9-0.1v1.1
				c-0.5,0.1-0.9,0.2-1.3,0.2c-0.4,0-0.7-0.1-1-0.2c-0.3-0.1-0.5-0.3-0.6-0.4c-0.1-0.2-0.3-0.4-0.3-0.7c-0.1-0.3-0.1-0.6-0.2-0.8
				C104.5,42.1,104.5,41.7,104.5,41.4z"/>
			<path id="XMLID_1732_" class="st2" d="M109,41.2l1.2-0.4c0.1,0.3,0.2,0.6,0.4,0.9c0.1,0.3,0.3,0.6,0.5,0.8
				c0.2,0.3,0.4,0.5,0.7,0.7c0.3,0.2,0.6,0.3,0.8,0.3c0.5,0,0.9-0.2,1.2-0.5c0.3-0.3,0.4-0.8,0.4-1.3c0-0.8-0.7-1.8-2.1-3l-0.9-0.8
				c-0.7-0.6-1.2-1.1-1.5-1.6c-0.3-0.5-0.5-1-0.5-1.6c0-0.9,0.3-1.6,0.8-2.1c0.6-0.5,1.3-0.8,2.2-0.8c0.4,0,0.8,0.1,1.2,0.3
				c0.4,0.2,0.7,0.4,0.9,0.7c0.2,0.3,0.5,0.6,0.6,1c0.2,0.4,0.3,0.7,0.4,1.2l-1.4,0.4c-0.1-0.4-0.2-0.7-0.3-1.1
				c-0.1-0.3-0.3-0.7-0.6-0.9c-0.3-0.3-0.6-0.4-0.9-0.4c-0.5,0-0.8,0.2-1.1,0.5c-0.3,0.3-0.4,0.7-0.4,1.2c0,0.4,0.1,0.8,0.4,1.2
				c0.3,0.4,0.6,0.8,1.1,1.2l1,0.8c0.3,0.3,0.6,0.5,0.7,0.6c0.2,0.2,0.4,0.4,0.6,0.7c0.3,0.3,0.4,0.5,0.6,0.8
				c0.1,0.2,0.2,0.5,0.4,0.8c0.1,0.3,0.2,0.7,0.2,1c0,0.9-0.3,1.6-0.9,2.2c-0.6,0.5-1.3,0.8-2.3,0.8c-0.9,0-1.7-0.3-2.3-0.9
				C109.7,43,109.3,42.2,109,41.2z"/>
			<path id="XMLID_1818_" class="st2" d="M121.5,44.3V32h1.5v1.2c0.3-0.5,0.7-0.8,1.2-1.1c0.5-0.2,0.9-0.4,1.4-0.4
				c0.6,0,1.1,0.3,1.6,0.8c0.5,0.5,0.7,1.2,0.7,2.1v9.6h-1.6v-9.7c0-0.6-0.1-1.1-0.4-1.3c-0.2-0.3-0.6-0.4-0.9-0.4
				c-0.3,0-0.7,0.1-1,0.3c-0.4,0.2-0.7,0.5-1,0.9v10.2H121.5z"/>
			<path id="XMLID_1822_" class="st2" d="M130.1,38.5v-0.6c0-0.5,0-1,0-1.3c0-0.3,0-0.7,0.1-1.2c0-0.5,0.1-0.9,0.2-1.2
				c0.1-0.3,0.2-0.6,0.4-1c0.2-0.4,0.3-0.6,0.6-0.8c0.2-0.2,0.5-0.4,0.9-0.5s0.7-0.2,1.2-0.2s0.8,0.1,1.2,0.2
				c0.3,0.1,0.6,0.3,0.9,0.5c0.2,0.2,0.4,0.5,0.6,0.8s0.3,0.7,0.4,1c0.1,0.3,0.1,0.7,0.2,1.2c0,0.5,0.1,0.9,0.1,1.2
				c0,0.3,0,0.7,0,1.3v0.6c0,0.5,0,0.8,0,1c0,0.2,0,0.6,0,1c0,0.4,0,0.7-0.1,1c0,0.2-0.1,0.5-0.2,0.8s-0.2,0.6-0.3,0.8
				c-0.1,0.2-0.2,0.4-0.4,0.6s-0.4,0.4-0.6,0.5c-0.2,0.1-0.5,0.2-0.8,0.3c-0.3,0.1-0.6,0.1-1,0.1c-0.4,0-0.7,0-1-0.1
				c-0.3-0.1-0.5-0.2-0.8-0.3c-0.2-0.1-0.4-0.3-0.6-0.5s-0.3-0.4-0.4-0.6c-0.1-0.2-0.2-0.4-0.3-0.8c-0.1-0.3-0.1-0.6-0.2-0.8
				c0-0.2-0.1-0.5-0.1-1c0-0.4,0-0.7,0-1C130.1,39.3,130.1,38.9,130.1,38.5z M131.7,37.8v0.6c0,1.9,0.1,3.3,0.3,4
				c0.2,0.7,0.7,1.1,1.4,1.1c0.7,0,1.1-0.4,1.4-1.1c0.2-0.7,0.3-2.1,0.3-4v-0.6c0-0.6,0-1.2,0-1.6c0-0.4,0-0.9-0.1-1.3
				c0-0.4-0.1-0.7-0.2-1c-0.1-0.2-0.2-0.5-0.3-0.7c-0.1-0.2-0.3-0.3-0.5-0.4c-0.2-0.1-0.4-0.1-0.6-0.1c-0.3,0-0.5,0-0.6,0.1
				c-0.2,0.1-0.3,0.2-0.5,0.4c-0.1,0.2-0.2,0.4-0.3,0.6c-0.1,0.2-0.1,0.6-0.2,1c0,0.4-0.1,0.8-0.1,1.3S131.7,37.2,131.7,37.8z"/>
			<path id="XMLID_1825_" class="st2" d="M140.1,44.3l-2-12.3h1.3l1.6,10.5l1.7-10.5h1.6l1.9,10.5l1.5-10.5h1.3l-2,12.3h-1.5
				l-2-10.1l-1.9,10.1H140.1z"/>
		</g>
		<g id="XMLID_1798_">
			<g id="XMLID_91_">
				<polygon id="XMLID_93_" class="st2" points="21.2,33 22.3,35.3 24.8,35.6 23,37.4 23.4,39.8 21.2,38.6 19,39.8 19.4,37.4 
					17.7,35.6 20.1,35.3 				"/>
				<polygon id="XMLID_92_" class="st2" points="165.1,33 166.2,35.3 168.7,35.6 166.9,37.4 167.3,39.8 165.1,38.6 162.9,39.8 
					163.3,37.4 161.6,35.6 164,35.3 				"/>
			</g>
		</g>
		<g id="XMLID_1796_">
			<g id="XMLID_1797_">
				<g id="XMLID_75_">
					<line id="XMLID_78_" class="st3" x1="19" y1="14.7" x2="19" y2="14.7"/>
					<line id="XMLID_77_" class="st4" x1="26.1" y1="14.7" x2="164.5" y2="14.7"/>
					<line id="XMLID_76_" class="st3" x1="168.1" y1="14.7" x2="168.1" y2="14.7"/>
				</g>
			</g>
		</g>
		<g id="XMLID_1792_">
			<g id="XMLID_1795_">
				<g id="XMLID_71_">
					<line id="XMLID_79_" class="st3" x1="19" y1="58.7" x2="19" y2="58.7"/>
					<line id="XMLID_73_" class="st4" x1="26.1" y1="58.7" x2="164.5" y2="58.7"/>
					<line id="XMLID_72_" class="st3" x1="168.1" y1="58.7" x2="168.1" y2="58.7"/>
				</g>
			</g>
		</g>
	</g>
</g>
</svg>
