<?xml version="1.0" encoding="utf-8"?>
<!-- Generator: Adobe Illustrator 19.0.0, SVG Export Plug-In . SVG Version: 6.00 Build 0)  -->
<svg version="1.1" id="Layer_1" xmlns="http://www.w3.org/2000/svg" xmlns:xlink="http://www.w3.org/1999/xlink" x="0px" y="0px"
	 viewBox="-482 237.1 391 102" style="enable-background:new -482 237.1 391 102;" xml:space="preserve">
<style type="text/css">
	.st0{fill:#FFFFFF;}
</style>
<g id="XMLID_8_">
	<g>
		<path class="st0" d="M-472.3,337.3l0.6-36c-2.1,1.4-3.5,3.1-4.4,5.2c-0.9,2.1-1.1,4.5-0.5,7.3c0.1,0.6,0.3,1.2,0.4,1.6
			c0.2,0.4,0.3,0.7,0.4,0.9c0.1,0.2,0.2,0.4,0.3,0.5c0.1,0.1,0.2,0.2,0.2,0.3c-0.9,0.2-1.7,0.2-2.4,0.2c-0.7,0-1.3-0.2-1.9-0.5
			s-1-0.7-1.3-1.3c-0.4-0.6-0.6-1.3-0.8-2.3c-0.2-1.1-0.2-2.3,0.1-3.5c0.3-1.2,0.7-2.3,1.4-3.5c0.7-1.1,1.5-2.2,2.5-3.3
			c1-1,2.1-2,3.3-2.9c1.2-0.9,2.5-1.6,3.8-2.2c1.4-0.6,2.8-1.1,4.2-1.3c0.4-0.1,0.7-0.1,1.1-0.2c0.3,0,0.7-0.1,1-0.1l-0.3,16.2
			c0.3-0.6,0.7-1.4,1.1-2.2c0.4-0.8,0.8-1.7,1.3-2.7c0.5-0.9,0.9-1.9,1.4-2.9c0.5-1,1-2,1.4-2.9c0.4-1,0.9-1.9,1.3-2.7
			c0.4-0.8,0.8-1.6,1.1-2.2c0.3-0.6,0.6-1.3,1-2l5.3-1l-11,19c0.3-0.1,0.6-0.1,0.9-0.2c0.3-0.1,0.6-0.1,0.8-0.2
			c1.2-0.2,2.3-0.3,3.2-0.2c0.9,0.1,1.6,0.4,2.2,0.8c0.6,0.4,1,0.9,1.3,1.5c0.3,0.6,0.6,1.3,0.7,2.1c0.2,1.1,0.3,2.2,0.3,3.4
			s-0.1,2.4-0.2,3.6c-0.1,1.2-0.2,2.3-0.2,3.4c-0.1,1.1,0,2,0.2,2.9c0.2,0.8,0.5,1.5,0.9,2c0.5,0.5,1,0.9,1.7,1
			c-1,0.5-1.9,0.9-2.7,1.2c-0.8,0.3-1.5,0.5-2.1,0.6c-0.8,0.2-1.5,0.2-2.1,0.1c-0.6-0.1-1-0.3-1.4-0.6c-0.4-0.3-0.6-0.6-0.8-1
			c-0.2-0.4-0.3-0.8-0.4-1.2c-0.2-0.9-0.2-1.9-0.2-3.1c0.1-1.2,0.1-2.4,0.2-3.7s0.2-2.5,0.2-3.8c0.1-1.2,0-2.4-0.2-3.3
			c-0.1-0.5-0.2-1-0.4-1.4s-0.4-0.7-0.7-1c-0.3-0.3-0.7-0.4-1.1-0.5c-0.4-0.1-0.9-0.1-1.5,0c-0.2,0-0.5,0.1-0.8,0.2
			c-0.3,0.1-0.6,0.2-0.9,0.3l-0.4,19.9L-472.3,337.3z"/>
		<path class="st0" d="M-424,318.5c-0.5,1.3-1.1,2.6-1.8,3.9c-0.7,1.3-1.5,2.5-2.5,3.6c-1,1.1-2.1,2.1-3.4,2.9s-2.8,1.4-4.4,1.7
			c-1.2,0.2-2.3,0.3-3.4,0.2c-1-0.1-2-0.4-2.8-0.9c-0.8-0.5-1.5-1.2-2.1-2.2s-1-2.1-1.3-3.6c-0.2-1-0.3-2.1-0.4-3.4
			c0-1.3,0-2.7,0.2-4.1c0.2-1.4,0.5-2.8,0.9-4.3s1.1-2.7,1.9-4c0.8-1.2,1.8-2.3,3.1-3.1s2.7-1.5,4.5-1.8c1.1-0.2,2.1-0.3,2.9-0.1
			c0.8,0.1,1.4,0.4,1.9,0.7c0.5,0.4,0.9,0.8,1.2,1.4s0.5,1.1,0.6,1.8c0.3,1.5,0.2,2.9-0.2,4.3c-0.4,1.4-1.1,2.7-2,3.8s-2,2.2-3.3,3
			c-1.3,0.9-2.7,1.5-4.2,1.9c0,0.4,0.1,0.8,0.1,1.1c0,0.3,0.1,0.7,0.1,1c0.2,0.9,0.4,1.6,0.6,2.1c0.3,0.5,0.6,0.9,0.9,1.2
			c0.4,0.3,0.8,0.4,1.3,0.4c0.5,0,1,0,1.6-0.1c1-0.2,1.9-0.5,2.7-0.9s1.5-0.9,2.1-1.5c0.6-0.6,1.2-1.3,1.7-2c0.5-0.8,1-1.5,1.5-2.4
			L-424,318.5z M-438.6,317.6c0.9-0.3,1.8-0.7,2.6-1.4c0.8-0.7,1.5-1.4,2-2.3c0.5-0.9,0.9-1.9,1.1-2.9s0.2-2.1,0-3.2
			c-0.1-0.6-0.3-1.1-0.6-1.5c-0.3-0.3-0.6-0.5-1.1-0.4c-0.6,0.1-1.2,0.6-1.7,1.3c-0.5,0.7-0.9,1.7-1.3,2.8s-0.6,2.3-0.8,3.6
			C-438.5,315-438.6,316.3-438.6,317.6z"/>
		<path class="st0" d="M-403.1,328.1c0,1.9-0.3,3.5-0.7,4.7c-0.5,1.3-1.1,2.3-1.8,3.1c-0.7,0.8-1.5,1.4-2.4,1.8s-1.7,0.7-2.6,0.8
			c-0.8,0.2-1.5,0.2-2.3,0.1c-0.7-0.1-1.4-0.3-2-0.6c-0.6-0.3-1.1-0.7-1.5-1.3s-0.7-1.3-0.9-2.1c-0.2-1.1-0.1-2,0.2-2.9
			c0.3-0.9,0.9-1.7,1.5-2.5c0.7-0.8,1.5-1.4,2.4-2.1c0.9-0.6,1.8-1.2,2.7-1.7l0.1-2.8c-0.4,0.7-0.9,1.3-1.4,1.8
			c-0.5,0.5-0.9,0.9-1.4,1.2c-0.5,0.3-0.9,0.5-1.4,0.7c-0.5,0.2-0.9,0.3-1.4,0.4c-0.8,0.1-1.5,0.2-2.2,0.1c-0.7-0.1-1.4-0.4-1.9-0.8
			c-0.6-0.4-1.1-1-1.5-1.7c-0.4-0.7-0.7-1.6-1-2.7c-0.1-0.5-0.2-1-0.2-1.5c0-0.6-0.1-1.2-0.1-1.9l0.3-17l7.3-1.4l-0.3,18
			c0,0.5,0,0.9,0.1,1.3c0.1,0.3,0.1,0.6,0.2,0.8c0.1,0.3,0.2,0.5,0.4,0.7c0.2,0.2,0.3,0.3,0.6,0.4c0.2,0.1,0.5,0.1,0.8,0
			c0.5-0.1,0.9-0.3,1.2-0.6c0.4-0.3,0.7-0.6,0.9-1.1c0.3-0.4,0.5-0.9,0.6-1.5s0.3-1.2,0.4-1.8l0.3-17.3l7.3-1.4L-403,322
			c0.7-0.4,1.4-0.9,1.9-1.4c0.6-0.5,1-1.1,1.4-1.7c0.4-0.7,0.7-1.4,1-2.3c0.3-0.9,0.5-1.9,0.6-3.1l2.1-0.4c-0.2,1.8-0.5,3.3-1,4.6
			c-0.5,1.3-1.1,2.3-1.7,3.2s-1.4,1.6-2.1,2.1c-0.8,0.5-1.5,1-2.3,1.3L-403.1,328.1z M-410.4,328.2c-0.6,0.4-1.2,0.8-1.7,1.2
			c-0.5,0.4-1,0.8-1.4,1.3c-0.4,0.4-0.7,0.9-0.9,1.4c-0.2,0.5-0.2,1-0.1,1.5c0,0.2,0.1,0.4,0.2,0.6c0.1,0.2,0.2,0.3,0.4,0.5
			c0.2,0.1,0.4,0.2,0.6,0.3c0.2,0.1,0.5,0.1,0.8,0c0.5-0.1,1-0.6,1.4-1.4c0.4-0.8,0.6-2.1,0.7-3.7L-410.4,328.2z"/>
		<path class="st0" d="M-367.2,307.5c-0.3,2.2-0.8,4-1.3,5.4s-1.2,2.5-1.9,3.3c-0.7,0.8-1.4,1.4-2.2,1.8c-0.8,0.4-1.5,0.6-2.2,0.7
			c-1.1,0.2-2.1,0.2-2.9,0.1s-1.5-0.5-2.1-0.9c-0.6-0.4-1-1-1.4-1.6c-0.3-0.6-0.6-1.3-0.7-2.1c-0.2-0.9-0.2-1.9-0.2-3.1
			c0-1.2,0-2.4,0.1-3.7c0-1.3,0.1-2.5,0.1-3.6c0-1.2,0-2.2-0.2-3c-0.3-1.7-1.1-2.5-2.3-2.2c-0.5,0.1-0.9,0.3-1.2,0.6
			c-0.3,0.3-0.6,0.7-0.9,1.2c-0.2,0.5-0.5,1-0.6,1.7c-0.2,0.6-0.3,1.3-0.3,2l-0.3,17l-7.3,1.4l0.5-26.4l7.3-1.4l0,2.7
			c0.4-0.7,0.9-1.3,1.3-1.8c0.5-0.5,0.9-0.9,1.4-1.2c0.5-0.3,0.9-0.5,1.4-0.7c0.4-0.2,0.9-0.3,1.3-0.3c0.8-0.2,1.6-0.2,2.3-0.1
			s1.4,0.3,2,0.7s1.1,0.9,1.5,1.6c0.4,0.7,0.7,1.5,0.9,2.5c0.1,0.7,0.2,1.4,0.2,2.2s0,1.6,0,2.5s-0.1,1.7-0.1,2.6
			c-0.1,0.9-0.1,1.7-0.1,2.4c0,0.8-0.1,1.5-0.1,2.2c0,0.7,0,1.2,0.1,1.7c0.1,0.6,0.4,1.1,0.7,1.5c0.4,0.3,0.9,0.4,1.7,0.3
			c0.5-0.1,1-0.3,1.4-0.6c0.4-0.3,0.7-0.7,0.9-1.1s0.5-1,0.6-1.6c0.2-0.6,0.3-1.3,0.5-2L-367.2,307.5z"/>
		<path class="st0" d="M-339.7,291.6c-0.8,1.2-1.9,2.4-3.3,3.4s-3,1.9-4.9,2.6c0.3,2.4,0.2,4.6-0.1,6.6c-0.3,2-0.9,3.8-1.7,5.3
			c-0.8,1.5-1.9,2.8-3.1,3.8c-1.3,1-2.7,1.6-4.2,1.9c-1.2,0.2-2.3,0.3-3.3,0.2c-1.1-0.1-2-0.4-2.8-0.9s-1.6-1.2-2.2-2.2
			c-0.6-0.9-1-2.1-1.3-3.6c-0.2-1-0.3-2.1-0.3-3.4c0-1.3,0-2.7,0.2-4.1c0.2-1.4,0.5-2.9,1-4.3c0.5-1.4,1.1-2.7,2-3.9
			c0.8-1.2,1.9-2.3,3.1-3.1c1.2-0.9,2.7-1.5,4.5-1.8c4.3-0.8,7,1.4,8.1,6.8l0,0.1c0.1,0,0.2,0,0.2,0s0.2,0,0.3-0.1
			c0.6-0.1,1.2-0.3,1.9-0.6s1.3-0.7,1.9-1.1s1.3-0.9,1.8-1.4c0.6-0.5,1.1-1,1.6-1.5L-339.7,291.6z M-352.1,298.5
			c-0.6,0-1-0.2-1.2-0.6c-0.3-0.4-0.4-0.8-0.5-1.3c-0.1-0.7-0.1-1.3,0.1-1.8c0.2-0.5,0.5-0.9,1-1.2c-0.1-0.5-0.3-1-0.4-1.3
			c-0.2-0.4-0.3-0.6-0.5-0.9s-0.4-0.3-0.7-0.4c-0.2-0.1-0.5,0-0.9,0c-0.6,0.1-1.2,0.5-1.6,1s-0.9,1.3-1.2,2.2s-0.6,1.9-0.9,2.9
			c-0.2,1.1-0.4,2.2-0.5,3.3c-0.1,1.1-0.1,2.2-0.1,3.3s0.1,2,0.3,2.9c0.2,0.8,0.3,1.5,0.5,2c0.2,0.5,0.4,0.9,0.7,1.2
			c0.3,0.3,0.6,0.4,0.9,0.5c0.4,0.1,0.8,0,1.2-0.1c0.6-0.1,1.2-0.5,1.7-1.2c0.5-0.7,0.9-1.5,1.3-2.6s0.6-2.3,0.8-3.6
			C-352.1,301.5-352,300-352.1,298.5z"/>
		<path class="st0" d="M-325.3,299.4c-0.2,1.5-0.5,2.8-0.9,3.9c-0.4,1.1-0.8,2.1-1.3,2.9c-0.5,0.8-1,1.5-1.6,2.1
			c-0.6,0.6-1.2,1-1.8,1.4c-0.6,0.4-1.2,0.6-1.7,0.8c-0.6,0.2-1.1,0.3-1.5,0.4c-0.8,0.1-1.5,0.2-2.2,0.1c-0.7-0.1-1.4-0.4-1.9-0.8
			c-0.6-0.4-1.1-1-1.5-1.7c-0.4-0.7-0.7-1.6-1-2.7c-0.1-0.5-0.2-1-0.2-1.5c0-0.6-0.1-1.2-0.1-1.9l0.3-14.9l-1.7,0.3l0-2.1l1.7-0.3
			l0.2-7.3l7.3-2.5l-0.2,8.4l3-0.6l0,2.1l-3.1,0.6l-0.3,15.9c0,0.3,0,0.6,0,0.9c0,0.3,0.1,0.5,0.1,0.8c0.1,0.7,0.4,1.2,0.8,1.4
			c0.4,0.2,0.9,0.2,1.6,0.1c0.5-0.1,1-0.3,1.4-0.6s0.8-0.7,1.1-1.2c0.3-0.5,0.6-1,0.8-1.6c0.2-0.6,0.3-1.3,0.4-1.9L-325.3,299.4z"/>
		<path class="st0" d="M-308,298c0,1.5-0.2,2.8-0.5,3.9c-0.4,1.1-0.9,2-1.6,2.7c-0.7,0.7-1.4,1.3-2.3,1.7s-1.9,0.7-2.9,0.9
			c-1.2,0.2-2.3,0.3-3.3,0.2c-1-0.1-1.9-0.4-2.8-0.9c-0.8-0.5-1.5-1.2-2.1-2.2c-0.6-0.9-1-2.1-1.3-3.6c-0.2-1-0.3-2.1-0.4-3.4
			s0-2.7,0.2-4.1c0.2-1.4,0.5-2.8,0.9-4.3c0.5-1.4,1.1-2.7,1.9-4c0.8-1.2,1.8-2.3,3.1-3.1c1.2-0.9,2.7-1.5,4.5-1.8
			c1.1-0.2,2.1-0.3,2.9-0.1c0.8,0.1,1.4,0.4,1.9,0.7s0.9,0.8,1.2,1.4c0.3,0.6,0.5,1.1,0.6,1.8c0.3,1.5,0.2,2.9-0.2,4.3
			c-0.4,1.4-1,2.7-2,3.8c-0.9,1.2-2,2.2-3.3,3c-1.3,0.9-2.7,1.5-4.2,1.9c0,0.3,0,0.6,0.1,0.8c0,0.3,0.1,0.5,0.1,0.7
			c0.2,0.8,0.4,1.5,0.6,2c0.3,0.5,0.6,0.9,0.9,1.2c0.3,0.3,0.7,0.4,1.1,0.5c0.4,0.1,0.8,0,1.3,0c0.5-0.1,1-0.3,1.5-0.5
			c0.5-0.3,1-0.6,1.5-0.9c0.5-0.3,0.9-0.7,1.4-1.2C-308.7,298.8-308.4,298.4-308,298z M-317.8,294.2c1-0.2,1.9-0.7,2.7-1.3
			c0.8-0.7,1.5-1.4,2-2.3c0.5-0.9,0.9-1.9,1.1-3c0.2-1.1,0.2-2.1,0-3.2c-0.1-0.6-0.3-1.1-0.6-1.5c-0.3-0.3-0.6-0.5-1.1-0.4
			c-0.6,0.1-1.2,0.6-1.7,1.3c-0.5,0.8-0.9,1.7-1.3,2.8c-0.3,1.1-0.6,2.3-0.8,3.7C-317.6,291.6-317.8,292.9-317.8,294.2z"/>
		<path class="st0" d="M-267.1,288.1c-1,1.8-2.1,3.3-3.2,4.6c-1.1,1.3-2.2,2.3-3.3,3.3c-0.4,0.7-0.9,1.3-1.5,1.8
			c-0.6,0.5-1.2,1-1.9,1.3c-0.7,0.4-1.3,0.7-2,0.9s-1.4,0.4-2,0.6c-1.3,0.2-2.4,0.3-3.4,0.1c-1-0.2-1.9-0.6-2.6-1.1
			c-0.7-0.5-1.3-1.1-1.8-1.8s-0.7-1.5-0.9-2.2c-0.1-0.6-0.1-1.2-0.1-1.7c0.1-0.5,0.2-1,0.3-1.5s0.4-0.8,0.7-1.2
			c0.3-0.4,0.6-0.6,0.9-0.9c0.9-2.8,1.6-5.6,2.1-8.2c0.5-2.7,0.9-5.3,1.2-8l7.3-2.4c0.5,2.2,1,4.1,1.4,5.7c0.4,1.6,0.8,3,1.1,4.1
			c0.3,1.2,0.6,2.2,0.8,3c0.2,0.8,0.4,1.5,0.6,2.2c0.2,0.6,0.3,1.2,0.5,1.7c0.1,0.5,0.2,1.1,0.4,1.6c0.1,0.4,0.1,0.7,0.2,1
			c0,0.3,0,0.6,0,0.9c0.7-0.6,1.3-1.1,1.8-1.7c0.5-0.5,1-1.1,1.4-1.6L-267.1,288.1z M-287.2,293.9c0.2,1.2,0.6,2,1.2,2.5
			c0.6,0.5,1.4,0.6,2.6,0.4c0.6-0.1,1.1-0.3,1.6-0.6c0.5-0.3,0.9-0.6,1.3-1.1c0.3-0.5,0.6-1,0.7-1.6c0.1-0.6,0.1-1.4-0.1-2.3
			c-0.1-0.4-0.2-0.8-0.3-1.2c-0.1-0.4-0.2-0.8-0.3-1.3s-0.3-0.9-0.4-1.5s-0.4-1.2-0.6-1.9s-0.5-1.6-0.7-2.5c-0.3-1-0.6-2.1-0.9-3.4
			c-0.2,1.8-0.5,3.5-0.9,5.2c-0.4,1.7-0.9,3.4-1.4,5.2c0.4,0.1,0.7,0.3,1,0.5s0.5,0.6,0.5,1c0.1,0.3,0.1,0.6,0,0.9s-0.1,0.6-0.3,0.9
			c-0.2,0.3-0.4,0.5-0.6,0.7c-0.2,0.2-0.5,0.3-0.9,0.4c-0.3,0.1-0.6,0.1-0.8,0C-286.8,294.3-287,294.1-287.2,293.9z"/>
		<path class="st0" d="M-266.6,310.6l0.7-41.6l7.3-1.4l-0.1,4c0.6-0.8,1.4-1.5,2.3-2.1c0.9-0.6,2-1,3.3-1.3c0.9-0.2,1.7-0.2,2.5-0.1
			c0.8,0.1,1.6,0.4,2.2,1s1.3,1.3,1.8,2.2c0.5,1,0.9,2.2,1.2,3.7c0.2,1.1,0.4,2.4,0.5,3.8c0.1,1.4,0.1,2.7,0,4.1s-0.4,2.8-0.8,4.1
			c-0.4,1.4-0.9,2.6-1.7,3.7c-0.7,1.1-1.7,2.1-2.8,2.9c-1.2,0.8-2.5,1.4-4.2,1.7c-0.6,0.1-1.2,0.2-1.7,0.2c-0.5,0-0.9-0.1-1.3-0.2
			c-0.4-0.1-0.7-0.2-1-0.4s-0.5-0.4-0.7-0.6l-0.2,12.9L-266.6,310.6z M-259,290.5c0.2,0.3,0.4,0.5,0.8,0.7c0.4,0.2,0.8,0.2,1.4,0.1
			c0.9-0.2,1.6-0.6,2.2-1.1s1.1-1.3,1.5-2.2c0.4-0.9,0.7-1.8,0.8-2.8c0.2-1,0.3-2.1,0.3-3.1c0-1.1,0-2.1-0.1-3.1
			c-0.1-1-0.2-1.9-0.4-2.7c-0.2-1-0.4-1.7-0.7-2.3c-0.3-0.5-0.6-0.9-0.9-1.1c-0.3-0.2-0.6-0.4-0.9-0.4c-0.3,0-0.6,0-0.8,0
			c-0.6,0.1-1.1,0.4-1.7,1c-0.6,0.5-1,1.3-1.3,2.2L-259,290.5z"/>
		<path class="st0" d="M-218.2,278.6c-0.5,1.3-1.1,2.6-1.8,3.9c-0.7,1.3-1.5,2.5-2.5,3.6c-1,1.1-2.1,2.1-3.4,2.9
			c-1.3,0.8-2.8,1.4-4.4,1.7c-1.2,0.2-2.3,0.3-3.4,0.2c-1-0.1-2-0.4-2.8-0.9c-0.8-0.5-1.5-1.2-2.1-2.2c-0.6-0.9-1-2.1-1.3-3.6
			c-0.2-1-0.3-2.1-0.4-3.4c0-1.3,0-2.7,0.2-4.1c0.2-1.4,0.5-2.8,0.9-4.3s1.1-2.7,1.9-4c0.8-1.2,1.8-2.3,3.1-3.1
			c1.2-0.9,2.7-1.5,4.5-1.8c1.1-0.2,2.1-0.3,2.9-0.1c0.8,0.1,1.4,0.4,1.9,0.7c0.5,0.4,0.9,0.8,1.2,1.4c0.3,0.6,0.5,1.1,0.6,1.8
			c0.3,1.5,0.2,2.9-0.2,4.3c-0.4,1.4-1,2.7-2,3.8c-0.9,1.2-2,2.2-3.3,3c-1.3,0.9-2.7,1.5-4.2,1.9c0,0.4,0.1,0.8,0.1,1.1
			c0,0.3,0.1,0.7,0.1,1c0.2,0.9,0.4,1.6,0.6,2.1c0.3,0.5,0.6,0.9,0.9,1.2s0.8,0.4,1.3,0.4c0.5,0,1,0,1.6-0.1c1-0.2,1.9-0.5,2.7-0.9
			c0.8-0.4,1.5-0.9,2.1-1.5c0.6-0.6,1.2-1.3,1.7-2c0.5-0.8,1-1.5,1.5-2.4L-218.2,278.6z M-232.7,277.7c0.9-0.3,1.8-0.7,2.6-1.4
			c0.8-0.7,1.5-1.4,2-2.3c0.5-0.9,0.9-1.9,1.1-2.9s0.2-2.1,0-3.2c-0.1-0.6-0.3-1.1-0.6-1.5c-0.3-0.3-0.6-0.5-1.1-0.4
			c-0.6,0.1-1.2,0.6-1.7,1.3c-0.5,0.7-0.9,1.7-1.3,2.8c-0.4,1.1-0.6,2.3-0.8,3.6C-232.6,275.1-232.7,276.4-232.7,277.7z"/>
		<path class="st0" d="M-188,272.8c-0.2,1.5-0.5,2.8-0.9,3.9s-0.8,2.1-1.3,2.9c-0.5,0.8-1,1.5-1.5,2c-0.5,0.6-1.1,1-1.6,1.3
			s-1.1,0.6-1.6,0.8s-1,0.3-1.5,0.4c-1.4,0.3-2.7,0.1-3.7-0.5c-1-0.6-1.7-1.7-2.2-3.2c-0.3,0.7-0.6,1.3-1,2
			c-0.4,0.7-0.8,1.3-1.4,1.8c-0.5,0.6-1.1,1-1.8,1.5s-1.5,0.7-2.4,0.9c-0.9,0.2-1.7,0.2-2.6,0.1c-0.9-0.1-1.7-0.4-2.4-1
			c-0.8-0.5-1.4-1.3-2-2.2c-0.6-1-1-2.2-1.3-3.7c-0.2-1.2-0.3-2.4-0.4-3.8c0-1.4,0.1-2.8,0.3-4.2c0.2-1.4,0.6-2.8,1.1-4.2
			c0.5-1.4,1.1-2.6,1.9-3.7c0.8-1.1,1.7-2.1,2.9-2.9s2.4-1.3,3.9-1.6c1.4-0.3,2.5-0.2,3.3,0.1c0.7,0.4,1.2,0.9,1.3,1.6l0.1,0.4
			l0-2.8l7.3-1.4l-0.3,18c0,0.3,0,0.6,0,0.9c0,0.3,0.1,0.6,0.1,0.8c0.3,1.5,1.1,2,2.5,1.8c0.5-0.1,0.9-0.3,1.3-0.7
			c0.4-0.3,0.7-0.8,1-1.3s0.5-1.1,0.6-1.7c0.2-0.6,0.3-1.3,0.3-2L-188,272.8z M-203,263.8c0-0.1-0.1-0.3-0.2-0.5
			c-0.1-0.2-0.3-0.4-0.5-0.6c-0.2-0.2-0.4-0.3-0.7-0.4c-0.3-0.1-0.6-0.1-1.1,0c-0.7,0.1-1.3,0.5-1.9,1.1s-1,1.3-1.4,2.2
			c-0.4,0.9-0.7,1.8-0.9,2.9c-0.2,1.1-0.4,2.1-0.5,3.2c-0.1,1.1-0.1,2.1-0.1,3.2s0.1,1.9,0.3,2.7c0.2,1,0.4,1.7,0.7,2.2
			c0.3,0.5,0.6,0.8,0.9,1.1c0.3,0.2,0.6,0.3,0.9,0.3c0.3,0,0.6,0,0.8-0.1c0.4-0.1,0.8-0.2,1.1-0.5c0.4-0.3,0.7-0.6,1.1-1.1
			c0.3-0.4,0.6-1,0.8-1.6c0.2-0.6,0.3-1.3,0.4-2.1L-203,263.8z"/>
		<path class="st0" d="M-158.7,267.1c-0.3,2.3-0.8,4.1-1.4,5.5c-0.6,1.4-1.3,2.5-2,3.3c-0.7,0.8-1.5,1.4-2.2,1.7s-1.4,0.6-2,0.7
			c-2.1,0.4-3.8,0.2-5.1-0.6c-1.3-0.8-2.1-2.1-2.4-4c-0.2-0.8-0.2-1.7-0.2-2.7l0-2.1c0-0.3,0-0.7,0-1c0-0.3-0.1-0.6-0.1-0.9
			c-0.1-0.7-0.4-1.3-0.7-1.7c-0.4-0.4-0.9-0.5-1.6-0.4c-0.6,0.1-1.1,0.4-1.7,0.9c-0.5,0.5-1.1,1-1.7,1.8l-0.2,13.1l-7.3,1.4l0.7-36
			l7.3-2.5l-0.3,18.6l8.3-9.6l5-1l-8.8,9c0.5-0.3,1.1-0.4,1.6-0.6c0.9-0.2,1.8-0.2,2.6,0c0.8,0.2,1.4,0.5,2,1s1,1,1.4,1.7
			c0.4,0.7,0.6,1.4,0.8,2.2c0.1,0.3,0.1,0.6,0.1,1c0,0.3,0,0.7,0,1l-0.1,2.6c0,0.3,0,0.6,0,0.9c0,0.3,0,0.5,0.1,0.8
			c0.1,0.5,0.3,0.9,0.7,1.3c0.3,0.3,0.9,0.4,1.7,0.3c0.5-0.1,1-0.3,1.4-0.6c0.4-0.3,0.7-0.7,0.9-1.1c0.3-0.5,0.5-1,0.6-1.6
			c0.2-0.6,0.3-1.3,0.5-2L-158.7,267.1z"/>
		<path class="st0" d="M-136.5,262.8c-0.5,1.3-1.1,2.6-1.8,3.9c-0.7,1.3-1.5,2.5-2.5,3.6c-1,1.1-2.1,2.1-3.4,2.9
			c-1.3,0.8-2.8,1.4-4.4,1.7c-1.2,0.2-2.3,0.3-3.4,0.2c-1-0.1-2-0.4-2.8-0.9c-0.8-0.5-1.5-1.2-2.1-2.2c-0.6-0.9-1-2.1-1.3-3.6
			c-0.2-1-0.3-2.1-0.4-3.4c0-1.3,0-2.7,0.2-4.1c0.2-1.4,0.5-2.8,0.9-4.3c0.5-1.4,1.1-2.7,1.9-4s1.8-2.3,3.1-3.1
			c1.2-0.9,2.7-1.5,4.5-1.8c1.1-0.2,2.1-0.3,2.9-0.1c0.8,0.1,1.4,0.4,1.9,0.7c0.5,0.4,0.9,0.8,1.2,1.4c0.3,0.6,0.5,1.1,0.6,1.8
			c0.3,1.5,0.2,2.9-0.2,4.3c-0.4,1.4-1,2.7-2,3.8s-2,2.2-3.3,3c-1.3,0.9-2.7,1.5-4.2,1.9c0,0.4,0.1,0.8,0.1,1.1c0,0.3,0.1,0.7,0.1,1
			c0.2,0.9,0.4,1.6,0.6,2.1c0.3,0.5,0.6,0.9,0.9,1.2c0.4,0.3,0.8,0.4,1.3,0.4c0.5,0,1,0,1.6-0.1c1-0.2,1.9-0.5,2.7-0.9
			c0.8-0.4,1.5-0.9,2.1-1.5c0.6-0.6,1.2-1.3,1.7-2c0.5-0.8,1-1.5,1.5-2.4L-136.5,262.8z M-151.1,261.9c0.9-0.3,1.8-0.7,2.6-1.4
			c0.8-0.7,1.5-1.4,2-2.3c0.5-0.9,0.9-1.9,1.1-2.9c0.2-1.1,0.2-2.1,0-3.2c-0.1-0.6-0.3-1.1-0.6-1.5c-0.3-0.3-0.6-0.5-1.1-0.4
			c-0.6,0.1-1.2,0.6-1.7,1.3c-0.5,0.7-0.9,1.7-1.3,2.8c-0.4,1.1-0.6,2.3-0.8,3.6C-151,259.3-151.1,260.6-151.1,261.9z"/>
		<path class="st0" d="M-135.4,272l0.5-26.4l7.3-1.4l0,3.3c0.4-0.5,0.7-1,1.1-1.4c0.4-0.5,0.8-0.9,1.3-1.3s0.9-0.7,1.4-1
			c0.5-0.3,1.1-0.5,1.7-0.6c0.6-0.1,1.1-0.1,1.6,0c0.5,0.1,0.9,0.3,1.3,0.6s0.7,0.7,0.9,1.1c0.2,0.4,0.4,0.9,0.5,1.4
			c0.1,0.4,0.1,0.9,0,1.4c-0.1,0.5-0.2,0.9-0.5,1.3c-0.2,0.4-0.6,0.8-1,1.1c-0.4,0.3-0.9,0.5-1.5,0.6c-0.5,0.1-0.9,0.1-1.2,0
			s-0.5-0.3-0.7-0.5c-0.2-0.2-0.3-0.5-0.4-0.8c-0.1-0.3-0.2-0.5-0.3-0.8c-0.1-0.2-0.2-0.4-0.4-0.6c-0.1-0.1-0.3-0.2-0.6-0.1
			c-0.8,0.2-1.4,0.5-1.9,0.9c-0.5,0.5-0.9,1-1.5,1.7l-0.3,20.1L-135.4,272z"/>
		<path class="st0" d="M-101.7,237.5c0.5,2.2,1,4.1,1.4,5.7c0.4,1.6,0.8,3,1.1,4.1c0.3,1.2,0.6,2.2,0.8,3c0.2,0.8,0.4,1.5,0.6,2.2
			c0.2,0.6,0.3,1.2,0.5,1.7c0.1,0.5,0.2,1.1,0.4,1.6c0.2,1.1,0.3,2.1,0.1,3.1c-0.1,0.9-0.4,1.8-0.8,2.5c-0.4,0.7-0.9,1.4-1.5,2
			c-0.6,0.6-1.2,1.1-1.9,1.5c-0.7,0.4-1.4,0.8-2.2,1.1c-0.8,0.3-1.5,0.5-2.2,0.6c-1.3,0.2-2.4,0.3-3.4,0.1c-1-0.2-1.9-0.6-2.6-1.1
			c-0.7-0.5-1.3-1.1-1.8-1.8c-0.4-0.7-0.7-1.5-0.9-2.2c-0.1-0.6-0.1-1.2-0.1-1.7c0.1-0.5,0.2-1,0.3-1.5c0.2-0.4,0.4-0.8,0.7-1.2
			c0.3-0.4,0.6-0.6,0.9-0.9c0.9-2.8,1.6-5.6,2.1-8.2c0.5-2.7,0.9-5.3,1.2-8L-101.7,237.5z M-111.6,259.9c0.2,1.2,0.6,2,1.2,2.5
			s1.4,0.6,2.6,0.4c0.6-0.1,1.1-0.3,1.6-0.6c0.5-0.3,0.9-0.6,1.3-1.1c0.3-0.5,0.6-1,0.7-1.6c0.1-0.6,0.1-1.4-0.1-2.3
			c-0.1-0.4-0.2-0.8-0.3-1.2c-0.1-0.4-0.2-0.8-0.3-1.3s-0.3-0.9-0.4-1.5c-0.2-0.6-0.4-1.2-0.6-1.9c-0.2-0.7-0.5-1.6-0.7-2.5
			c-0.3-1-0.6-2.1-0.9-3.4c-0.2,1.8-0.5,3.5-0.9,5.2c-0.4,1.7-0.9,3.4-1.4,5.2c0.4,0.1,0.7,0.3,1,0.5s0.5,0.6,0.5,1
			c0.1,0.3,0.1,0.6,0,0.9c0,0.3-0.1,0.6-0.3,0.9c-0.2,0.3-0.4,0.5-0.6,0.7c-0.2,0.2-0.5,0.3-0.9,0.4c-0.3,0.1-0.6,0.1-0.8,0
			C-111.2,260.3-111.5,260.1-111.6,259.9z"/>
	</g>
	<polygon id="XMLID_9_" class="st0" points="-91.4,271.4 -254.8,306.3 -252,301.2 -91.3,269.7 	"/>
</g>
</svg>
