<?xml version="1.0" encoding="utf-8"?>
<!-- Generator: Adobe Illustrator 19.0.0, SVG Export Plug-In . SVG Version: 6.00 Build 0)  -->
<svg version="1.1" id="Layer_1" xmlns="http://www.w3.org/2000/svg" xmlns:xlink="http://www.w3.org/1999/xlink" x="0px" y="0px"
	 viewBox="-372 233.3 215 95" style="enable-background:new -372 233.3 215 95;" xml:space="preserve">
<style type="text/css">
	.st0{enable-background:new    ;}
	.st1{fill:#FFFFFF;}
</style>
<g id="XMLID_1147_">
	<g class="st0">
		<path class="st1" d="M-358.6,314.4l0.6-33.6l7.3-2.4l-0.3,17.7c0.8-0.2,1.6-0.6,2.3-1.2c0.7-0.5,1.3-1.2,1.8-1.9
			c0.5-0.7,1-1.6,1.4-2.5c0.4-0.9,0.7-1.9,0.9-2.8c0.2-1,0.3-2,0.3-2.9c0-1-0.1-1.9-0.2-2.8c-0.2-0.9-0.5-1.8-0.9-2.6
			c-0.4-0.8-0.9-1.5-1.5-2c-0.6-0.5-1.4-0.9-2.3-1.1c-0.9-0.2-1.9-0.2-3,0c-2.1,0.4-3.9,1-5.4,1.9c-1.5,0.9-2.7,2-3.7,3.2
			c-0.9,1.3-1.5,2.7-1.8,4.4c-0.3,1.6-0.3,3.4,0.1,5.4c0.1,0.6,0.3,1.2,0.4,1.6c0.2,0.4,0.3,0.7,0.4,0.9c0.1,0.2,0.2,0.4,0.3,0.5
			c0.1,0.1,0.2,0.2,0.2,0.3c-0.9,0.2-1.7,0.2-2.4,0.2c-0.7,0-1.3-0.2-1.9-0.5c-0.5-0.3-1-0.7-1.3-1.3c-0.4-0.6-0.6-1.3-0.8-2.3
			c-0.2-1.1-0.2-2.3,0.1-3.5c0.3-1.2,0.7-2.3,1.4-3.5c0.7-1.1,1.5-2.2,2.5-3.3c1-1,2.1-2,3.3-2.9c1.2-0.9,2.5-1.6,3.8-2.2
			c1.4-0.6,2.8-1.1,4.2-1.3c2.1-0.4,3.9-0.5,5.5-0.2c1.6,0.3,3,0.8,4.2,1.5c1.2,0.7,2.1,1.7,2.8,2.8c0.7,1.1,1.2,2.3,1.4,3.6
			c0.3,1.6,0.3,3.3-0.1,5.1c-0.4,1.8-1,3.4-2.1,4.9s-2.3,2.9-4,4.1c-1.7,1.2-3.6,2-5.9,2.4l-0.3,0.1l-0.3,15.1L-358.6,314.4z"/>
		<path class="st1" d="M-304.3,294.4c-0.2,1.5-0.5,2.8-0.9,3.9c-0.4,1.1-0.8,2.1-1.3,2.9c-0.5,0.8-1,1.5-1.5,2
			c-0.5,0.6-1.1,1-1.6,1.3c-0.6,0.3-1.1,0.6-1.6,0.8c-0.5,0.2-1,0.3-1.5,0.4c-1.4,0.3-2.7,0.1-3.7-0.5c-1-0.6-1.7-1.7-2.2-3.2
			c-0.3,0.7-0.6,1.3-1,2c-0.4,0.6-0.8,1.3-1.4,1.8c-0.5,0.6-1.1,1-1.8,1.5c-0.7,0.4-1.5,0.7-2.4,0.9c-0.9,0.2-1.7,0.2-2.6,0.1
			c-0.9-0.1-1.7-0.4-2.4-1s-1.4-1.3-2-2.2s-1-2.2-1.3-3.7c-0.2-1.2-0.3-2.4-0.4-3.8c0-1.4,0.1-2.8,0.3-4.2c0.2-1.4,0.6-2.8,1.1-4.2
			s1.1-2.6,1.9-3.7c0.8-1.1,1.7-2.1,2.9-2.9c1.1-0.8,2.4-1.3,3.9-1.6c1.4-0.3,2.5-0.2,3.3,0.1c0.7,0.4,1.2,0.9,1.3,1.6l0.1,0.4
			l0-2.8l7.3-1.4l-0.3,18c0,0.3,0,0.6,0,0.9c0,0.3,0.1,0.6,0.1,0.8c0.3,1.5,1.1,2,2.5,1.8c0.5-0.1,0.9-0.3,1.3-0.6
			c0.4-0.3,0.7-0.8,1-1.3c0.3-0.5,0.5-1.1,0.6-1.7c0.2-0.6,0.3-1.3,0.3-2L-304.3,294.4z M-319.3,285.4c0-0.1-0.1-0.3-0.2-0.5
			c-0.1-0.2-0.3-0.4-0.5-0.6c-0.2-0.2-0.4-0.3-0.7-0.4c-0.3-0.1-0.6-0.1-1.1,0c-0.7,0.1-1.3,0.5-1.9,1.1c-0.5,0.6-1,1.3-1.4,2.2
			c-0.4,0.9-0.7,1.8-0.9,2.9c-0.2,1.1-0.4,2.1-0.5,3.2c-0.1,1.1-0.1,2.1-0.1,3.2c0,1,0.1,1.9,0.3,2.7c0.2,1,0.4,1.7,0.7,2.2
			c0.3,0.5,0.6,0.8,0.9,1.1c0.3,0.2,0.6,0.3,0.9,0.3c0.3,0,0.6,0,0.8-0.1c0.4-0.1,0.8-0.2,1.1-0.5c0.4-0.3,0.7-0.6,1.1-1.1
			s0.6-1,0.8-1.6c0.2-0.6,0.3-1.3,0.4-2.1L-319.3,285.4z"/>
		<path class="st1" d="M-303.7,303.7l0.5-26.4l7.3-1.4l0,3.3c0.4-0.5,0.7-1,1.1-1.4c0.4-0.5,0.8-0.9,1.3-1.3c0.4-0.4,0.9-0.7,1.4-1
			c0.5-0.3,1.1-0.5,1.7-0.6c0.6-0.1,1.1-0.1,1.6,0c0.5,0.1,0.9,0.3,1.3,0.6c0.4,0.3,0.7,0.7,0.9,1.1c0.2,0.4,0.4,0.9,0.5,1.4
			c0.1,0.4,0.1,0.9,0,1.4c-0.1,0.5-0.2,0.9-0.5,1.3c-0.2,0.4-0.6,0.8-1,1.1c-0.4,0.3-0.9,0.5-1.5,0.6c-0.5,0.1-0.9,0.1-1.2,0
			c-0.3-0.1-0.5-0.3-0.7-0.5c-0.2-0.2-0.3-0.5-0.4-0.8c-0.1-0.3-0.2-0.5-0.3-0.8c-0.1-0.2-0.2-0.4-0.4-0.6c-0.1-0.1-0.3-0.2-0.6-0.1
			c-0.8,0.2-1.4,0.5-1.9,0.9c-0.5,0.5-0.9,1-1.5,1.7l-0.3,20.1L-303.7,303.7z"/>
		<path class="st1" d="M-265.9,287c-0.2,1.5-0.5,2.8-0.9,3.9c-0.4,1.1-0.8,2.1-1.3,2.9c-0.5,0.8-1,1.5-1.6,2.1s-1.2,1-1.8,1.4
			c-0.6,0.4-1.2,0.6-1.7,0.8c-0.6,0.2-1.1,0.3-1.5,0.4c-0.8,0.1-1.5,0.2-2.2,0.1c-0.7-0.1-1.4-0.4-1.9-0.8c-0.6-0.4-1.1-1-1.5-1.7
			c-0.4-0.7-0.7-1.6-1-2.7c-0.1-0.5-0.2-1-0.2-1.5c0-0.6-0.1-1.2-0.1-1.9l0.3-14.9l-1.7,0.3l0-2.1l1.7-0.3l0.2-7.3l7.3-2.5l-0.2,8.4
			l3-0.6l0,2.1l-3,0.6l-0.3,15.9c0,0.3,0,0.6,0,0.9c0,0.3,0.1,0.5,0.1,0.8c0.1,0.7,0.4,1.2,0.8,1.4c0.4,0.2,0.9,0.2,1.6,0.1
			c0.5-0.1,1-0.3,1.4-0.6c0.4-0.3,0.8-0.7,1.1-1.2c0.3-0.5,0.6-1,0.8-1.6c0.2-0.6,0.3-1.3,0.4-1.9L-265.9,287z"/>
		<path class="st1" d="M-237.3,281.4c-0.3,2.2-0.7,4-1.3,5.4c-0.6,1.4-1.2,2.5-1.9,3.3c-0.7,0.8-1.4,1.4-2.2,1.8
			c-0.8,0.4-1.5,0.6-2.2,0.7c-1.1,0.2-2.1,0.2-2.9,0.1c-0.8-0.2-1.5-0.5-2.1-0.9c-0.6-0.4-1-1-1.4-1.6c-0.3-0.6-0.6-1.3-0.7-2.1
			c-0.2-0.9-0.2-1.9-0.2-3.1c0-1.2,0-2.4,0.1-3.7c0-1.3,0.1-2.5,0.1-3.6c0-1.2,0-2.2-0.2-3c-0.3-1.7-1.1-2.5-2.3-2.2
			c-0.5,0.1-0.9,0.3-1.2,0.6c-0.3,0.3-0.6,0.7-0.9,1.2c-0.2,0.5-0.5,1-0.6,1.7c-0.2,0.6-0.3,1.3-0.3,2l-0.3,17l-7.3,1.4l0.5-26.4
			l7.3-1.4l0,2.7c0.4-0.7,0.9-1.3,1.3-1.8c0.5-0.5,0.9-0.9,1.4-1.2c0.5-0.3,0.9-0.5,1.4-0.7c0.4-0.2,0.9-0.3,1.3-0.3
			c0.8-0.2,1.6-0.2,2.3-0.1c0.7,0.1,1.4,0.3,2,0.7c0.6,0.4,1.1,0.9,1.5,1.6c0.4,0.7,0.7,1.5,0.9,2.5c0.1,0.7,0.2,1.4,0.2,2.2
			c0,0.8,0,1.6,0,2.5s-0.1,1.7-0.1,2.6c0,0.9-0.1,1.7-0.1,2.4c0,0.8-0.1,1.5-0.1,2.2c0,0.7,0,1.2,0.1,1.7c0.1,0.6,0.4,1.1,0.7,1.5
			c0.4,0.3,0.9,0.4,1.7,0.3c0.5-0.1,1-0.3,1.4-0.6c0.4-0.3,0.7-0.7,0.9-1.1c0.3-0.5,0.5-1,0.6-1.6c0.2-0.6,0.3-1.3,0.5-2
			L-237.3,281.4z"/>
		<path class="st1" d="M-215.3,277.2c-0.5,1.3-1.1,2.6-1.8,3.9s-1.5,2.5-2.5,3.6c-1,1.1-2.1,2.1-3.4,2.9c-1.3,0.8-2.8,1.4-4.4,1.7
			c-1.2,0.2-2.3,0.3-3.4,0.2c-1-0.1-2-0.4-2.8-0.9c-0.8-0.5-1.5-1.2-2.1-2.2c-0.6-0.9-1-2.1-1.3-3.6c-0.2-1-0.3-2.1-0.4-3.4
			c0-1.3,0-2.7,0.2-4.1c0.2-1.4,0.5-2.8,0.9-4.3c0.5-1.4,1.1-2.7,1.9-4c0.8-1.2,1.8-2.3,3.1-3.1s2.7-1.5,4.5-1.8
			c1.1-0.2,2.1-0.3,2.9-0.1c0.8,0.1,1.4,0.4,1.9,0.7c0.5,0.4,0.9,0.8,1.2,1.4c0.3,0.6,0.5,1.1,0.6,1.8c0.3,1.5,0.2,2.9-0.2,4.3
			c-0.4,1.4-1,2.7-2,3.8c-0.9,1.2-2,2.2-3.3,3c-1.3,0.9-2.7,1.5-4.2,1.9c0,0.4,0.1,0.8,0.1,1.1c0,0.3,0.1,0.7,0.1,1
			c0.2,0.9,0.4,1.6,0.6,2.1c0.3,0.5,0.6,0.9,0.9,1.2c0.4,0.3,0.8,0.4,1.3,0.4c0.5,0,1,0,1.6-0.1c1-0.2,1.9-0.5,2.7-0.9
			c0.8-0.4,1.5-0.9,2.1-1.5c0.6-0.6,1.2-1.3,1.7-2c0.5-0.8,1-1.5,1.5-2.4L-215.3,277.2z M-229.9,276.3c0.9-0.3,1.8-0.7,2.6-1.4
			c0.8-0.7,1.5-1.4,2-2.3c0.5-0.9,0.9-1.9,1.1-2.9c0.2-1.1,0.2-2.1,0-3.2c-0.1-0.6-0.3-1.1-0.6-1.5c-0.3-0.3-0.6-0.5-1.1-0.4
			c-0.6,0.1-1.2,0.6-1.7,1.3c-0.5,0.7-0.9,1.7-1.3,2.8c-0.4,1.1-0.6,2.3-0.8,3.6C-229.8,273.7-229.9,275-229.9,276.3z"/>
		<path class="st1" d="M-214.4,286.4l0.5-26.4l7.3-1.4l0,3.3c0.4-0.5,0.7-1,1.1-1.4c0.4-0.5,0.8-0.9,1.3-1.3c0.4-0.4,0.9-0.7,1.4-1
			c0.5-0.3,1.1-0.5,1.7-0.6c0.6-0.1,1.1-0.1,1.6,0c0.5,0.1,0.9,0.3,1.3,0.6c0.4,0.3,0.7,0.7,0.9,1.1c0.2,0.4,0.4,0.9,0.5,1.4
			c0.1,0.4,0.1,0.9,0,1.4c-0.1,0.5-0.2,0.9-0.5,1.3c-0.2,0.4-0.6,0.8-1,1.1c-0.4,0.3-0.9,0.5-1.5,0.6c-0.5,0.1-0.9,0.1-1.2,0
			c-0.3-0.1-0.5-0.3-0.7-0.5c-0.2-0.2-0.3-0.5-0.4-0.8c-0.1-0.3-0.2-0.5-0.3-0.8c-0.1-0.2-0.2-0.4-0.4-0.6c-0.1-0.1-0.3-0.2-0.6-0.1
			c-0.8,0.2-1.4,0.5-1.9,0.9s-0.9,1-1.5,1.7L-207,285L-214.4,286.4z"/>
		<path class="st1" d="M-180.8,252c0.5,2.2,1,4.1,1.4,5.7c0.4,1.6,0.8,3,1.1,4.1c0.3,1.2,0.6,2.2,0.8,3c0.2,0.8,0.4,1.5,0.6,2.2
			c0.2,0.6,0.3,1.2,0.5,1.7c0.1,0.5,0.2,1.1,0.4,1.6c0.2,1.1,0.3,2.1,0.1,3.1c-0.1,0.9-0.4,1.8-0.8,2.5c-0.4,0.7-0.9,1.4-1.5,2
			c-0.6,0.6-1.2,1.1-1.9,1.5c-0.7,0.4-1.4,0.8-2.2,1.1c-0.8,0.3-1.5,0.5-2.2,0.6c-1.3,0.2-2.4,0.3-3.4,0.1c-1-0.2-1.9-0.6-2.6-1.1
			c-0.7-0.5-1.3-1.1-1.8-1.8c-0.4-0.7-0.7-1.5-0.9-2.2c-0.1-0.6-0.1-1.2-0.1-1.7c0.1-0.5,0.2-1,0.3-1.5c0.2-0.4,0.4-0.8,0.7-1.2
			c0.3-0.4,0.6-0.6,0.9-0.9c0.9-2.8,1.6-5.6,2.1-8.2c0.5-2.7,0.9-5.3,1.2-8L-180.8,252z M-190.8,274.3c0.2,1.2,0.6,2,1.2,2.5
			c0.6,0.5,1.4,0.6,2.6,0.4c0.6-0.1,1.1-0.3,1.6-0.6c0.5-0.3,0.9-0.6,1.3-1.1c0.3-0.5,0.6-1,0.7-1.6c0.1-0.6,0.1-1.4-0.1-2.3
			c-0.1-0.4-0.2-0.8-0.3-1.2s-0.2-0.8-0.3-1.3s-0.3-0.9-0.4-1.5c-0.2-0.6-0.4-1.2-0.6-1.9c-0.2-0.7-0.5-1.6-0.7-2.5
			c-0.3-1-0.6-2.1-0.9-3.4c-0.2,1.8-0.5,3.5-0.9,5.2c-0.4,1.7-0.9,3.4-1.4,5.2c0.4,0.1,0.7,0.3,1,0.5c0.3,0.2,0.5,0.6,0.5,1
			c0.1,0.3,0.1,0.6,0,0.9c0,0.3-0.1,0.6-0.3,0.9c-0.2,0.3-0.4,0.5-0.6,0.7c-0.2,0.2-0.5,0.3-0.9,0.4c-0.3,0.1-0.6,0.1-0.8,0
			C-190.4,274.7-190.6,274.6-190.8,274.3z"/>
	</g>
	<polygon id="XMLID_1150_" class="st1" points="-157,286.9 -320.4,321.8 -317.6,316.7 -157,285.2 	"/>
</g>
</svg>
