<?xml version="1.0" encoding="utf-8"?>
<!-- Generator: Adobe Illustrator 19.0.0, SVG Export Plug-In . SVG Version: 6.00 Build 0)  -->
<svg version="1.1" id="Layer_1" xmlns="http://www.w3.org/2000/svg" xmlns:xlink="http://www.w3.org/1999/xlink" x="0px" y="0px"
	 viewBox="0 0 349 114" style="enable-background:new 0 0 349 114;" xml:space="preserve">
<style type="text/css">
	.st0{fill:#FFFFFF;}
</style>
<g id="XMLID_116_">
	<g id="XMLID_111_">
		<path id="XMLID_121_" class="st0" d="M27,78.9l-0.4,17.8c-0.1,2.6-0.3,4.9-0.7,6.9c-0.4,2-1,3.7-1.8,5.1c-0.8,1.4-1.7,2.5-2.9,3.3
			c-1.2,0.8-2.5,1.4-4.1,1.7c-1.2,0.2-2.4,0.3-3.5,0.2s-2-0.4-2.9-0.9s-1.5-1.1-2.1-1.9c-0.6-0.8-0.9-1.7-1.1-2.7
			c-0.2-1-0.2-1.9,0-2.9c0.2-0.9,0.5-1.8,1-2.5c0.5-0.8,1.1-1.4,1.9-1.9s1.6-0.9,2.6-1.1c1.3-0.3,2.4-0.1,3.3,0.3
			c0.9,0.5,1.5,1.3,1.7,2.3c0.2,0.8,0.1,1.5-0.2,2c-0.4-0.4-0.9-0.6-1.4-0.7c-0.6-0.1-1.1-0.1-1.7,0c-0.5,0.1-1,0.3-1.3,0.5
			c-0.4,0.3-0.7,0.6-0.9,1c-0.2,0.4-0.4,0.8-0.5,1.3c-0.1,0.5-0.1,1,0,1.5c0.1,0.5,0.3,1,0.5,1.4c0.3,0.4,0.6,0.8,0.9,1
			c0.4,0.3,0.7,0.5,1.2,0.6c0.4,0.1,0.9,0.1,1.4,0c1.2-0.2,2.1-0.9,2.7-2.2c0.6-1.2,1-2.9,1.1-5.1l0.4-11.7l-0.2,0
			c-0.7,1.5-1.6,2.6-2.8,3.6s-2.5,1.6-4.1,1.9c-1.5,0.3-2.9,0.3-4.2-0.1c-1.3-0.4-2.5-1-3.6-2c-1.1-1-2-2.2-2.8-3.7
			c-0.8-1.5-1.3-3.2-1.7-5.2c-0.4-1.9-0.5-3.7-0.4-5.5s0.4-3.5,0.9-5.2c0.5-1.6,1.2-3.2,2.1-4.6c0.9-1.4,1.9-2.7,3.1-3.8
			c1.2-1.1,2.6-2.1,4.1-2.8c1.5-0.8,3.1-1.3,4.9-1.7c1.4-0.3,2.8-0.4,4-0.3c1.2,0.1,2.3,0.4,3.2,0.8c0.9,0.4,1.7,1.1,2.3,1.8
			c0.6,0.8,1,1.7,1.2,2.8c0.1,0.7,0.2,1.4,0.1,2c-0.1,0.6-0.2,1.2-0.5,1.7c-0.3,0.5-0.6,0.9-1,1.2c-0.4,0.3-0.9,0.5-1.5,0.6
			c-0.6,0.1-1.3,0.1-1.9-0.1c-0.6-0.2-1.2-0.5-1.6-0.9c0.3-0.3,0.5-0.6,0.7-1c0.2-0.4,0.4-0.8,0.5-1.3c0.1-0.5,0.2-0.9,0.2-1.4
			c0-0.5,0-1-0.1-1.4c-0.2-1-0.6-1.8-1.3-2.2c-0.7-0.4-1.6-0.6-2.7-0.3c-1,0.2-2,0.6-2.8,1.3c-0.9,0.7-1.7,1.5-2.4,2.5
			c-0.7,1-1.3,2.1-1.8,3.4S9,75.3,8.7,76.7c-0.3,1.5-0.4,3-0.4,4.5c0,1.6,0.1,3.1,0.4,4.7c0.5,2.6,1.3,4.4,2.3,5.6
			c1.1,1.2,2.4,1.6,3.9,1.3c1.9-0.4,3.3-1.6,4.3-3.8c1-2.2,1.6-5.2,1.7-9.1L27,78.9z"/>
		<path id="XMLID_124_" class="st0" d="M60.6,74.4c-0.8,1.2-1.9,2.4-3.3,3.4c-1.4,1-3,1.9-4.9,2.6c0.3,2.4,0.2,4.6-0.1,6.6
			c-0.3,2-0.9,3.8-1.7,5.3c-0.8,1.5-1.9,2.8-3.1,3.8c-1.3,1-2.7,1.6-4.2,1.9c-1.2,0.2-2.3,0.3-3.3,0.2c-1.1-0.1-2-0.4-2.8-0.9
			c-0.8-0.5-1.6-1.2-2.2-2.2s-1-2.1-1.3-3.6c-0.2-1-0.3-2.1-0.3-3.4c0-1.3,0-2.7,0.2-4.1c0.2-1.4,0.5-2.8,1-4.3
			c0.5-1.4,1.1-2.7,2-3.9c0.8-1.2,1.9-2.3,3.1-3.1c1.2-0.9,2.7-1.5,4.5-1.8c4.3-0.8,7,1.4,8.1,6.8l0,0.1c0.1,0,0.2,0,0.2,0
			c0.1,0,0.2,0,0.3-0.1c0.6-0.1,1.2-0.3,1.9-0.6s1.3-0.7,1.9-1.1c0.6-0.4,1.3-0.9,1.8-1.4s1.1-1,1.6-1.5L60.6,74.4z M48.2,81.3
			c-0.6,0-1-0.2-1.2-0.6s-0.4-0.8-0.5-1.3c-0.1-0.7-0.1-1.3,0.1-1.8c0.2-0.5,0.5-0.9,1-1.2c-0.1-0.5-0.3-1-0.4-1.3
			c-0.2-0.4-0.3-0.6-0.5-0.9s-0.4-0.3-0.7-0.4c-0.2-0.1-0.5,0-0.9,0c-0.6,0.1-1.2,0.5-1.6,1c-0.5,0.6-0.9,1.3-1.2,2.2
			c-0.4,0.9-0.6,1.9-0.9,2.9c-0.2,1.1-0.4,2.2-0.5,3.3c-0.1,1.1-0.1,2.2-0.1,3.3s0.1,2,0.3,2.9c0.2,0.8,0.3,1.5,0.5,2
			c0.2,0.5,0.4,0.9,0.7,1.2c0.3,0.3,0.6,0.4,0.9,0.5c0.4,0.1,0.8,0,1.2-0.1c0.6-0.1,1.2-0.5,1.7-1.2c0.5-0.7,0.9-1.5,1.3-2.6
			s0.6-2.3,0.8-3.6C48.3,84.3,48.3,82.8,48.2,81.3z"/>
		<path id="XMLID_370_" class="st0" d="M59.9,70.3l-1.7,0.3l0-2.1l1.7-0.3l0.2-7.3l7.3-2.5c0,0.3,0,0.7,0,1.1c0,0.4,0,0.8,0,1.3
			c0,0.7-0.1,1.6-0.1,2.7c0,1,0,2.1,0,3.3l3-0.6l0,2.1l-3,0.6l-0.3,15.9c0,0.3,0,0.7,0,1c0,0.3,0.1,0.6,0.1,0.8
			c0.1,0.5,0.3,0.9,0.6,1.2c0.3,0.3,0.8,0.4,1.5,0.3c0.2,0,0.4-0.1,0.6-0.1c0.2-0.1,0.5-0.1,0.7-0.3c-0.2,1.2-0.4,2.1-0.7,2.9
			c-0.3,0.7-0.7,1.3-1.1,1.8s-0.8,0.8-1.3,1s-0.9,0.3-1.3,0.4c-0.9,0.2-1.7,0.2-2.4,0c-0.7-0.2-1.3-0.5-1.8-0.9
			c-0.5-0.4-0.9-1-1.2-1.7s-0.6-1.4-0.7-2.2c-0.2-0.9-0.2-1.8-0.2-2.8L59.9,70.3z"/>
		<path id="XMLID_1136_" class="st0" d="M111.4,76.1c0,0.3,0,0.6,0,0.9c0,0.3,0.1,0.6,0.1,0.8c0.1,0.7,0.4,1.2,0.8,1.4
			c0.4,0.2,0.9,0.2,1.7,0.1c0.2,0,0.4-0.1,0.6-0.2c0.2-0.1,0.3-0.2,0.5-0.3c-0.2,0.9-0.4,1.8-0.5,2.5c-0.2,0.7-0.4,1.3-0.7,1.8
			c-0.3,0.5-0.7,0.9-1.1,1.2c-0.4,0.3-1,0.5-1.7,0.6c-1.4,0.3-2.6,0.1-3.6-0.6c-1-0.7-1.8-1.7-2.3-3.2c-0.3,0.7-0.6,1.3-1,2
			c-0.4,0.7-0.9,1.3-1.4,1.8s-1.2,1.1-1.9,1.5c-0.7,0.4-1.5,0.7-2.4,0.9c-0.9,0.2-1.7,0.2-2.6,0.1c-0.9-0.1-1.7-0.4-2.4-1
			c-0.8-0.5-1.4-1.3-2-2.2c-0.6-1-1-2.2-1.3-3.7c-0.2-1.2-0.3-2.4-0.4-3.8c0-1.4,0.1-2.8,0.3-4.2c0.2-1.4,0.6-2.8,1.1-4.2
			c0.5-1.4,1.1-2.6,1.9-3.7c0.8-1.1,1.7-2.1,2.9-2.9s2.4-1.3,3.9-1.6c1.4-0.3,2.5-0.2,3.3,0.1c0.7,0.4,1.2,0.9,1.3,1.6l0.1,0.4
			l0-2.8l7.3-1.4L111.4,76.1z M104.3,64.6c0-0.1-0.1-0.3-0.2-0.5c-0.1-0.2-0.3-0.4-0.5-0.6s-0.4-0.3-0.7-0.4c-0.3-0.1-0.6-0.1-1.1,0
			c-0.7,0.1-1.3,0.5-1.9,1.1c-0.5,0.6-1,1.3-1.4,2.2s-0.7,1.8-0.9,2.9c-0.2,1.1-0.4,2.1-0.5,3.2c-0.1,1.1-0.1,2.1-0.1,3.2
			c0,1,0.1,1.9,0.3,2.7c0.2,1,0.4,1.7,0.7,2.2c0.3,0.5,0.6,0.8,0.9,1.1c0.3,0.2,0.6,0.3,0.9,0.3c0.3,0,0.6,0,0.8-0.1
			c0.4-0.1,0.8-0.2,1.1-0.5c0.4-0.3,0.7-0.6,1.1-1.1c0.3-0.4,0.6-1,0.8-1.6c0.2-0.6,0.3-1.3,0.4-2.1L104.3,64.6z"/>
		<path id="XMLID_1143_" class="st0" d="M147,68.2c-0.2,1.5-0.5,2.8-0.9,3.9c-0.4,1.1-0.8,2.1-1.3,2.9c-0.5,0.8-1,1.5-1.6,2.1
			c-0.6,0.6-1.2,1-1.8,1.4c-0.6,0.4-1.2,0.6-1.7,0.8c-0.6,0.2-1.1,0.3-1.5,0.4c-0.8,0.1-1.5,0.2-2.2,0.1c-0.7-0.1-1.4-0.4-1.9-0.8
			c-0.6-0.4-1.1-1-1.5-1.7c-0.4-0.7-0.7-1.6-1-2.7c-0.1-0.5-0.2-1-0.2-1.5c0-0.6-0.1-1.2-0.1-1.9l0.3-14.8l-1.7,0.3l0-2.1l1.7-0.3
			l0.2-7.3l7.3-2.5l-0.2,8.4l3-0.6l0,2.1l-3,0.6l-0.3,15.9c0,0.3,0,0.6,0,0.9s0.1,0.5,0.1,0.8c0.1,0.7,0.4,1.2,0.8,1.4
			c0.4,0.2,0.9,0.2,1.6,0.1c0.5-0.1,1-0.3,1.4-0.6s0.8-0.7,1.1-1.2c0.3-0.5,0.6-1,0.8-1.6s0.3-1.3,0.4-1.9L147,68.2z"/>
		<path id="XMLID_1146_" class="st0" d="M176.8,62.4c-0.2,1.5-0.5,2.8-0.9,3.9c-0.4,1.1-0.8,2.1-1.3,2.9c-0.5,0.8-1,1.5-1.5,2
			c-0.5,0.6-1.1,1-1.6,1.3c-0.5,0.3-1.1,0.6-1.6,0.8c-0.5,0.2-1,0.3-1.5,0.4c-1.4,0.3-2.7,0.1-3.7-0.5c-1-0.6-1.7-1.7-2.2-3.2
			c-0.3,0.7-0.6,1.3-1,2c-0.4,0.7-0.8,1.3-1.4,1.8c-0.5,0.6-1.1,1-1.8,1.5c-0.7,0.4-1.5,0.7-2.4,0.9c-0.9,0.2-1.7,0.2-2.6,0.1
			c-0.9-0.1-1.7-0.4-2.4-1c-0.8-0.5-1.4-1.3-2-2.2c-0.6-1-1-2.2-1.3-3.7c-0.2-1.2-0.3-2.4-0.4-3.8c0-1.4,0.1-2.8,0.3-4.2
			c0.2-1.4,0.6-2.8,1.1-4.2c0.5-1.4,1.1-2.6,1.9-3.7c0.8-1.1,1.7-2.1,2.9-2.9s2.4-1.3,3.9-1.6c1.4-0.3,2.5-0.2,3.3,0.1
			c0.7,0.4,1.2,0.9,1.3,1.6l0.1,0.4l0-2.8l7.3-1.4l-0.3,18c0,0.3,0,0.6,0,0.9c0,0.3,0.1,0.6,0.1,0.8c0.3,1.5,1.1,2,2.5,1.8
			c0.5-0.1,0.9-0.3,1.3-0.7s0.7-0.8,1-1.3c0.3-0.5,0.5-1.1,0.6-1.7c0.2-0.6,0.3-1.3,0.3-2L176.8,62.4z M161.7,53.4
			c0-0.1-0.1-0.3-0.2-0.5c-0.1-0.2-0.3-0.4-0.5-0.6s-0.4-0.3-0.7-0.4c-0.3-0.1-0.6-0.1-1.1,0c-0.7,0.1-1.3,0.5-1.9,1.1
			c-0.5,0.6-1,1.3-1.4,2.2c-0.4,0.9-0.7,1.8-0.9,2.9c-0.2,1.1-0.4,2.1-0.5,3.2c-0.1,1.1-0.1,2.1-0.1,3.2c0,1,0.1,1.9,0.3,2.7
			c0.2,1,0.4,1.7,0.7,2.2c0.3,0.5,0.6,0.8,0.9,1.1c0.3,0.2,0.6,0.3,0.9,0.3s0.6,0,0.8-0.1c0.4-0.1,0.8-0.2,1.1-0.5s0.7-0.6,1.1-1.1
			s0.6-1,0.8-1.6c0.2-0.6,0.3-1.3,0.4-2.1L161.7,53.4z"/>
		<path id="XMLID_1156_" class="st0" d="M193.4,59.2c-0.2,1.5-0.5,2.8-0.9,3.9c-0.4,1.1-0.8,2.1-1.3,2.9c-0.5,0.8-1,1.5-1.6,2.1
			c-0.6,0.6-1.2,1-1.8,1.4c-0.6,0.4-1.2,0.6-1.7,0.8s-1.1,0.3-1.5,0.4c-0.8,0.1-1.5,0.2-2.2,0.1c-0.7-0.1-1.4-0.4-1.9-0.8
			c-0.6-0.4-1.1-1-1.5-1.7c-0.4-0.7-0.7-1.6-1-2.7c-0.1-0.5-0.2-1-0.2-1.5c0-0.6-0.1-1.2-0.1-1.9l0.5-26.5l7.3-2.5L185,61.8
			c0,0.3,0,0.6,0,0.9c0,0.3,0.1,0.5,0.1,0.8c0.1,0.7,0.4,1.2,0.8,1.4c0.4,0.2,0.9,0.2,1.6,0.1c0.5-0.1,1-0.3,1.4-0.6
			s0.8-0.7,1.1-1.2c0.3-0.5,0.6-1,0.8-1.6c0.2-0.6,0.3-1.3,0.4-1.9L193.4,59.2z"/>
		<path id="XMLID_1158_" class="st0" d="M214.8,56.1c0,0.3,0,0.6,0,0.9c0,0.3,0,0.5,0.1,0.8c0.1,0.5,0.3,0.9,0.7,1.3
			c0.3,0.3,0.9,0.4,1.7,0.3c0.3-0.1,0.5-0.1,0.7-0.2c0.2-0.1,0.3-0.1,0.5-0.2c0.1-0.1,0.2-0.1,0.3-0.2c0.1-0.1,0.2-0.1,0.3-0.2
			c0.1,0.9,0,1.7-0.2,2.5c-0.2,0.7-0.6,1.4-1,1.9c-0.4,0.5-0.9,0.9-1.3,1.2c-0.5,0.3-0.9,0.5-1.2,0.6c-2.1,0.4-3.8,0.2-5.1-0.6
			c-1.3-0.8-2.1-2.1-2.4-4c-0.2-0.8-0.2-1.7-0.2-2.7l0-2.1c0-0.3,0-0.7,0-1s-0.1-0.6-0.1-0.9c-0.1-0.7-0.4-1.3-0.7-1.7
			c-0.4-0.4-0.9-0.5-1.6-0.4c-0.6,0.1-1.1,0.4-1.7,0.9c-0.5,0.5-1.1,1-1.7,1.8l-0.2,13.1l-7.3,1.4l0.7-36l7.3-2.5l-0.3,18.6l8.3-9.6
			l5-1l-8.8,9c0.5-0.3,1.1-0.4,1.6-0.6c0.9-0.2,1.8-0.2,2.6,0c0.8,0.2,1.4,0.5,2,1c0.6,0.5,1,1,1.4,1.7c0.4,0.7,0.6,1.4,0.8,2.2
			c0.1,0.3,0.1,0.6,0.1,1c0,0.3,0,0.7,0,1L214.8,56.1z"/>
		<path id="XMLID_1160_" class="st0" d="M243.4,25.6c0.1,0.6,0.1,1.1,0,1.6c-0.1,0.5-0.3,1-0.6,1.4c-0.3,0.4-0.7,0.8-1.1,1.1
			c-0.4,0.3-1,0.5-1.5,0.6c-0.6,0.1-1.1,0.1-1.6,0s-1-0.3-1.4-0.6c-0.4-0.3-0.8-0.7-1.1-1.1c-0.3-0.4-0.5-1-0.6-1.5
			c-0.1-0.6-0.1-1.1,0-1.6c0.1-0.5,0.3-1,0.6-1.5c0.3-0.4,0.7-0.8,1.1-1.1c0.4-0.3,1-0.5,1.5-0.6c0.6-0.1,1.1-0.1,1.6,0
			c0.5,0.1,1,0.3,1.5,0.6c0.4,0.3,0.8,0.7,1.1,1.1C243.1,24.5,243.3,25,243.4,25.6z M251.1,48c-0.2,1.5-0.5,2.8-0.9,3.9
			c-0.4,1.1-0.8,2.1-1.3,2.9c-0.5,0.8-1,1.5-1.6,2.1c-0.6,0.6-1.2,1-1.8,1.4s-1.2,0.6-1.7,0.8c-0.6,0.2-1.1,0.3-1.5,0.4
			c-0.8,0.1-1.5,0.2-2.2,0.1s-1.4-0.4-1.9-0.8c-0.6-0.4-1.1-1-1.5-1.7c-0.4-0.7-0.7-1.6-1-2.7c-0.1-0.5-0.2-1-0.2-1.5
			c0-0.6-0.1-1.2-0.1-1.9l0.3-17l7.3-1.4l-0.3,18c0,0.3,0,0.6,0,0.9c0,0.3,0.1,0.5,0.1,0.8c0.1,0.7,0.4,1.2,0.8,1.4
			c0.4,0.2,0.9,0.2,1.6,0.1c0.5-0.1,1-0.3,1.4-0.6s0.8-0.7,1.1-1.2c0.3-0.5,0.6-1,0.8-1.6s0.3-1.3,0.4-1.9L251.1,48z"/>
		<path id="XMLID_1165_" class="st0" d="M280.8,42.3c-0.2,1.5-0.5,2.7-0.9,3.8c-0.4,1.1-0.8,2-1.3,2.8s-1,1.4-1.5,2
			c-0.5,0.5-1.1,1-1.7,1.3c-0.6,0.3-1.1,0.6-1.6,0.8s-1,0.3-1.5,0.4c-1.4,0.3-2.6,0.1-3.6-0.4c-1-0.6-1.7-1.6-2.2-3
			c-0.3,0.7-0.6,1.3-1,2c-0.4,0.6-0.8,1.3-1.4,1.8c-0.5,0.6-1.2,1-1.9,1.5c-0.7,0.4-1.5,0.7-2.4,0.9c-0.9,0.2-1.7,0.2-2.6,0.1
			c-0.9-0.1-1.7-0.4-2.4-1c-0.8-0.5-1.4-1.3-2-2.2c-0.6-1-1-2.2-1.3-3.7c-0.2-1.2-0.3-2.4-0.4-3.8c0-1.4,0.1-2.8,0.3-4.2
			c0.2-1.4,0.6-2.8,1.1-4.2c0.5-1.4,1.1-2.6,1.9-3.7c0.8-1.1,1.7-2.1,2.9-2.9s2.4-1.3,3.9-1.6c1.4-0.3,2.5-0.2,3.3,0.1
			c0.7,0.4,1.2,0.9,1.3,1.6l0,0.2l0.2-12.2l7.3-2.5l-0.5,28.6c0,0.3,0,0.6,0,0.9s0.1,0.6,0.1,0.8c0.1,0.7,0.4,1.2,0.8,1.4
			c0.4,0.2,0.9,0.2,1.7,0.1c0.5-0.1,0.9-0.3,1.3-0.6c0.4-0.3,0.7-0.7,1-1.2c0.3-0.5,0.5-1,0.6-1.6c0.2-0.6,0.3-1.2,0.3-1.9
			L280.8,42.3z M265.5,45.2l0.2-12.1c-0.1-0.1-0.1-0.3-0.3-0.5c-0.1-0.2-0.3-0.4-0.4-0.5c-0.2-0.2-0.4-0.3-0.7-0.4
			c-0.3-0.1-0.6-0.1-1,0c-0.7,0.1-1.3,0.5-1.9,1.1c-0.5,0.6-1,1.3-1.4,2.2s-0.7,1.8-0.9,2.9c-0.2,1.1-0.4,2.1-0.5,3.2
			c-0.1,1.1-0.1,2.1-0.1,3.2s0.1,1.9,0.3,2.7c0.2,1,0.4,1.7,0.7,2.2c0.3,0.5,0.6,0.8,0.9,1.1c0.3,0.2,0.6,0.3,0.9,0.3
			c0.3,0,0.6,0,0.8-0.1c0.3-0.1,0.7-0.2,1.1-0.5c0.4-0.3,0.7-0.6,1.1-1s0.6-0.9,0.8-1.5c0.2-0.6,0.3-1.3,0.4-2L265.5,45.2z"/>
		<path id="XMLID_1171_" class="st0" d="M302.9,38c-0.5,1.3-1.1,2.6-1.8,3.9c-0.7,1.3-1.5,2.5-2.5,3.6c-1,1.1-2.1,2.1-3.4,2.9
			c-1.3,0.8-2.8,1.4-4.4,1.7c-1.2,0.2-2.3,0.3-3.4,0.2c-1-0.1-2-0.4-2.8-0.9c-0.8-0.5-1.5-1.2-2.1-2.2c-0.6-0.9-1-2.1-1.3-3.6
			c-0.2-1-0.3-2.1-0.4-3.4c0-1.3,0-2.7,0.2-4.1c0.2-1.4,0.5-2.8,0.9-4.3c0.5-1.4,1.1-2.7,1.9-4c0.8-1.2,1.8-2.3,3.1-3.1
			c1.2-0.9,2.7-1.5,4.5-1.8c1.1-0.2,2.1-0.3,2.9-0.1c0.8,0.1,1.4,0.4,1.9,0.7c0.5,0.4,0.9,0.8,1.2,1.4c0.3,0.6,0.5,1.1,0.6,1.8
			c0.3,1.5,0.2,2.9-0.2,4.3c-0.4,1.4-1,2.7-2,3.8c-0.9,1.2-2,2.2-3.3,3c-1.3,0.9-2.7,1.5-4.2,1.9c0,0.4,0.1,0.8,0.1,1.1
			s0.1,0.7,0.1,1c0.2,0.9,0.4,1.6,0.6,2.1c0.3,0.5,0.6,0.9,0.9,1.2c0.4,0.3,0.8,0.4,1.3,0.4s1,0,1.6-0.1c1-0.2,1.9-0.5,2.7-0.9
			c0.8-0.4,1.5-0.9,2.1-1.5c0.6-0.6,1.2-1.3,1.7-2c0.5-0.8,1-1.5,1.5-2.4L302.9,38z M288.3,37.1c0.9-0.3,1.8-0.7,2.6-1.4
			s1.5-1.4,2-2.3c0.5-0.9,0.9-1.9,1.1-2.9c0.2-1.1,0.2-2.1,0-3.2c-0.1-0.6-0.3-1.1-0.6-1.5c-0.3-0.3-0.6-0.5-1.1-0.4
			c-0.6,0.1-1.2,0.6-1.7,1.3c-0.5,0.7-0.9,1.7-1.3,2.8c-0.4,1.1-0.6,2.3-0.8,3.6C288.4,34.5,288.4,35.8,288.3,37.1z"/>
		<path id="XMLID_1181_" class="st0" d="M325.1,34.7c0,0.3,0,0.6,0,0.9c0,0.3,0.1,0.6,0.1,0.8c0.1,0.7,0.4,1.2,0.8,1.4
			c0.4,0.2,0.9,0.2,1.7,0.1c0.2,0,0.4-0.1,0.6-0.2c0.2-0.1,0.3-0.2,0.5-0.3c-0.2,0.9-0.4,1.8-0.5,2.5c-0.2,0.7-0.4,1.3-0.7,1.8
			c-0.3,0.5-0.7,0.9-1.1,1.2c-0.4,0.3-1,0.5-1.7,0.6c-1.4,0.3-2.6,0.1-3.6-0.6c-1-0.7-1.8-1.7-2.3-3.2c-0.3,0.7-0.6,1.3-1,2
			c-0.4,0.7-0.9,1.3-1.4,1.8c-0.5,0.6-1.2,1.1-1.9,1.5c-0.7,0.4-1.5,0.7-2.4,0.9c-0.9,0.2-1.7,0.2-2.6,0.1c-0.9-0.1-1.7-0.4-2.4-1
			c-0.8-0.5-1.4-1.3-2-2.2c-0.6-1-1-2.2-1.3-3.7c-0.2-1.2-0.3-2.4-0.4-3.8c0-1.4,0.1-2.8,0.3-4.2c0.2-1.4,0.6-2.8,1.1-4.2
			c0.5-1.4,1.1-2.6,1.9-3.7c0.8-1.1,1.7-2.1,2.9-2.9c1.1-0.8,2.4-1.3,3.9-1.6c1.4-0.3,2.5-0.2,3.3,0.1c0.7,0.4,1.2,0.9,1.3,1.6
			l0.1,0.4l0-2.8l7.3-1.4L325.1,34.7z M318,23.2c0-0.1-0.1-0.3-0.2-0.5c-0.1-0.2-0.3-0.4-0.5-0.6c-0.2-0.2-0.4-0.3-0.7-0.4
			c-0.3-0.1-0.6-0.1-1.1,0c-0.7,0.1-1.3,0.5-1.9,1.1c-0.5,0.6-1,1.3-1.4,2.2c-0.4,0.9-0.7,1.8-0.9,2.9c-0.2,1.1-0.4,2.1-0.5,3.2
			c-0.1,1.1-0.1,2.1-0.1,3.2s0.1,1.9,0.3,2.7c0.2,1,0.4,1.7,0.7,2.2s0.6,0.8,0.9,1.1s0.6,0.3,0.9,0.3c0.3,0,0.6,0,0.8-0.1
			c0.4-0.1,0.8-0.2,1.1-0.5c0.4-0.3,0.7-0.6,1.1-1.1s0.6-1,0.8-1.6c0.2-0.6,0.3-1.3,0.4-2.1L318,23.2z"/>
		<path id="XMLID_1200_" class="st0" d="M341.6,7.3c-0.3-1.5-0.8-2.6-1.6-3.2c-0.7-0.7-1.7-0.9-2.7-0.7c-0.6,0.1-1.1,0.3-1.5,0.6
			c-0.4,0.3-0.8,0.7-1.1,1.1c-0.3,0.4-0.5,0.9-0.6,1.5c-0.1,0.5-0.1,1.1,0,1.7c0.2,0.9,0.5,1.6,1.1,2.3c0.6,0.7,1.3,1.1,2.1,1.3
			l0,0.2c-0.5,0.7-1.1,1.2-1.7,1.6c-0.6,0.4-1.2,0.7-1.8,0.8c-0.5,0.1-1.1,0.1-1.6,0c-0.5-0.1-0.9-0.3-1.3-0.6
			c-0.4-0.3-0.7-0.7-1-1.2c-0.3-0.5-0.5-1.1-0.6-1.7c-0.2-1.2-0.2-2.4,0.2-3.5s0.9-2.2,1.7-3.1c0.8-0.9,1.8-1.8,3-2.4
			c1.2-0.7,2.5-1.2,4-1.4c1.4-0.3,2.6-0.3,3.8-0.2s2.2,0.4,3.1,0.8c0.9,0.5,1.6,1.1,2.2,1.9c0.6,0.8,1,1.7,1.2,2.8
			c0.2,1.1,0.2,2.1,0,3.1c-0.2,1-0.5,1.9-1,2.8s-1,1.8-1.7,2.6c-0.7,0.8-1.3,1.7-2,2.5c-0.7,0.8-1.4,1.7-2,2.6
			c-0.7,0.9-1.2,1.8-1.7,2.7c-0.5,0.9-0.8,1.9-1,3c-0.2,1-0.2,2.1,0.1,3.3l-3.3,0.6c-0.2-1.3-0.3-2.4-0.2-3.5c0.1-1.1,0.3-2.1,0.6-3
			c0.3-0.9,0.6-1.8,1.1-2.7c0.4-0.8,0.9-1.6,1.4-2.4c0.5-0.8,0.9-1.6,1.4-2.3c0.4-0.8,0.8-1.5,1.1-2.4c0.3-0.8,0.5-1.7,0.6-2.5
			C341.8,9.2,341.8,8.2,341.6,7.3z M342.4,35.6c0.1,0.6,0.1,1.1,0,1.6c-0.1,0.5-0.3,1-0.6,1.5c-0.3,0.4-0.7,0.8-1.1,1.1
			c-0.4,0.3-1,0.5-1.5,0.6c-0.6,0.1-1.1,0.1-1.6,0c-0.5-0.1-1-0.3-1.5-0.6c-0.4-0.3-0.8-0.7-1.1-1.1c-0.3-0.4-0.5-1-0.6-1.5
			c-0.1-0.6-0.1-1.1,0-1.6c0.1-0.5,0.3-1,0.6-1.4c0.3-0.4,0.7-0.8,1.1-1.1c0.4-0.3,1-0.5,1.5-0.6c0.6-0.1,1.1-0.1,1.6,0
			c0.5,0.1,1,0.3,1.4,0.6c0.4,0.3,0.8,0.7,1.1,1.1C342.1,34.5,342.3,35,342.4,35.6z"/>
	</g>
	<polygon id="XMLID_117_" class="st0" points="345.4,48.3 182,83.2 184.8,78.1 345.5,46.5 	"/>
</g>
</svg>
