<?xml version="1.0" encoding="utf-8"?>
<!-- Generator: Adobe Illustrator 19.0.0, SVG Export Plug-In . SVG Version: 6.00 Build 0)  -->
<svg version="1.1" id="Layer_1" xmlns="http://www.w3.org/2000/svg" xmlns:xlink="http://www.w3.org/1999/xlink" x="0px" y="0px"
	 viewBox="0 0 207 73.1" style="enable-background:new 0 0 207 73.1;" xml:space="preserve">
<style type="text/css">
	.st0{fill:#FFFFFF;}
</style>
<g id="XMLID_2374_">
	<g id="XMLID_1_">
		<path id="XMLID_2_" class="st0" d="M22.3,29c0.1,0.7,0.2,1.4,0.1,2s-0.2,1.2-0.5,1.7c-0.2,0.5-0.6,0.9-1,1.2
			c-0.4,0.3-0.9,0.5-1.5,0.6c-0.6,0.1-1.3,0.1-1.8-0.1C17,34.3,16.5,34,16,33.6c0.5-0.6,0.9-1.3,1.2-2.1c0.2-0.8,0.3-1.7,0.1-2.6
			c-0.2-1.1-0.7-1.9-1.5-2.4c-0.8-0.5-1.7-0.7-2.8-0.4c-0.7,0.1-1.3,0.4-1.8,0.7c-0.5,0.4-0.9,0.8-1.3,1.3c-0.3,0.5-0.5,1.1-0.6,1.8
			c-0.1,0.7-0.1,1.4,0.1,2.1c0.2,1.1,0.7,2.1,1.4,3c0.7,0.9,1.6,1.7,2.6,2.5c1,0.8,2.1,1.6,3.2,2.4c1.1,0.8,2.2,1.7,3.3,2.6
			c1,1,2,2,2.8,3.2c0.8,1.2,1.3,2.6,1.7,4.1c0.3,1.7,0.3,3.3-0.1,4.8S23,57.7,22,59c-1,1.3-2.3,2.4-3.9,3.3
			c-1.5,0.9-3.3,1.6-5.2,1.9c-1.6,0.3-3.1,0.4-4.5,0.2c-1.4-0.2-2.6-0.6-3.7-1.2c-1.1-0.6-2-1.4-2.7-2.4c-0.7-1-1.2-2.2-1.5-3.5
			c-0.2-1.1-0.2-2.2-0.1-3.3c0.2-1,0.5-2,1-2.8c0.5-0.8,1.1-1.6,1.9-2.1c0.8-0.6,1.7-1,2.6-1.2c1.2-0.2,2.2-0.1,3.2,0.3
			c0.9,0.4,1.6,1.2,2,2.2c-0.9,0.2-1.7,0.5-2.3,0.8c-0.7,0.4-1.2,0.8-1.6,1.4c-0.4,0.5-0.7,1.2-0.8,1.8c-0.1,0.7-0.1,1.4,0,2.2
			c0.3,1.5,1,2.6,2,3.3c1,0.7,2.3,0.9,3.8,0.6c0.9-0.2,1.7-0.5,2.4-1c0.7-0.5,1.3-1,1.7-1.7c0.4-0.7,0.7-1.4,0.9-2.3
			c0.2-0.8,0.2-1.7,0-2.6c-0.2-0.9-0.5-1.8-1-2.6c-0.5-0.8-1-1.5-1.7-2.2c-0.7-0.7-1.4-1.4-2.2-2c-0.8-0.7-1.6-1.3-2.4-2
			c-0.8-0.7-1.6-1.3-2.4-2c-0.8-0.7-1.5-1.4-2.2-2.1c-0.7-0.7-1.3-1.5-1.7-2.4c-0.5-0.8-0.8-1.7-1-2.7c-0.3-1.3-0.2-2.6,0.1-3.9
			c0.4-1.2,1-2.4,1.8-3.4c0.9-1,1.9-1.9,3.2-2.6s2.8-1.3,4.4-1.6c1.4-0.3,2.6-0.3,3.8-0.2c1.2,0.1,2.2,0.4,3.1,0.9
			c0.9,0.5,1.7,1.1,2.3,1.9C21.7,27,22.1,27.9,22.3,29z"/>
		<path id="XMLID_4_" class="st0" d="M30.1,73.1l0.7-41.6l7.3-1.4l-0.1,4c0.6-0.8,1.4-1.5,2.3-2.1c0.9-0.6,2-1,3.3-1.3
			c0.9-0.2,1.7-0.2,2.5-0.1c0.8,0.1,1.6,0.4,2.2,1c0.7,0.5,1.3,1.3,1.8,2.2c0.5,1,0.9,2.2,1.2,3.7c0.2,1.1,0.4,2.4,0.5,3.8
			c0.1,1.4,0.1,2.7,0,4.1c-0.1,1.4-0.4,2.8-0.8,4.1c-0.4,1.4-0.9,2.6-1.7,3.7c-0.7,1.1-1.7,2.1-2.8,2.9c-1.2,0.8-2.5,1.4-4.2,1.7
			C41.7,58,41.1,58,40.6,58c-0.5,0-0.9-0.1-1.3-0.2c-0.4-0.1-0.7-0.2-1-0.4c-0.3-0.2-0.5-0.4-0.7-0.6l-0.2,12.9L30.1,73.1z M37.8,53
			c0.2,0.3,0.4,0.5,0.8,0.7c0.4,0.2,0.8,0.2,1.4,0.1c0.9-0.2,1.6-0.6,2.2-1.1c0.6-0.6,1.1-1.3,1.5-2.2c0.4-0.9,0.7-1.8,0.8-2.8
			c0.2-1,0.3-2.1,0.3-3.1s0-2.1-0.1-3.1c-0.1-1-0.2-1.9-0.4-2.7c-0.2-1-0.4-1.7-0.7-2.3c-0.3-0.5-0.6-0.9-0.9-1.1s-0.6-0.4-0.9-0.4
			c-0.3,0-0.6,0-0.8,0c-0.6,0.1-1.1,0.4-1.7,1s-1,1.3-1.3,2.2L37.8,53z"/>
		<path id="XMLID_7_" class="st0" d="M78.6,41.1c-0.5,1.3-1.1,2.6-1.8,3.9c-0.7,1.3-1.5,2.5-2.5,3.6c-1,1.1-2.1,2.1-3.4,2.9
			c-1.3,0.8-2.8,1.4-4.4,1.7c-1.2,0.2-2.3,0.3-3.4,0.2c-1-0.1-2-0.4-2.8-0.9c-0.8-0.5-1.5-1.2-2.1-2.2c-0.6-0.9-1-2.1-1.3-3.6
			c-0.2-1-0.3-2.1-0.4-3.4c0-1.3,0-2.7,0.2-4.1s0.5-2.8,0.9-4.3c0.5-1.4,1.1-2.7,1.9-4c0.8-1.2,1.8-2.3,3.1-3.1
			c1.2-0.9,2.7-1.5,4.5-1.8c1.1-0.2,2.1-0.3,2.9-0.1c0.8,0.1,1.4,0.4,1.9,0.7c0.5,0.4,0.9,0.8,1.2,1.4c0.3,0.6,0.5,1.1,0.6,1.8
			c0.3,1.5,0.2,2.9-0.2,4.3c-0.4,1.4-1,2.7-1.9,3.8c-0.9,1.2-2,2.2-3.3,3c-1.3,0.9-2.7,1.5-4.2,1.9c0,0.4,0.1,0.8,0.1,1.1
			c0,0.3,0.1,0.7,0.1,1c0.2,0.9,0.4,1.6,0.6,2.1c0.3,0.5,0.6,0.9,0.9,1.2c0.4,0.3,0.8,0.4,1.3,0.4c0.5,0,1,0,1.6-0.1
			c1-0.2,1.9-0.5,2.7-0.9c0.8-0.4,1.5-0.9,2.1-1.5s1.2-1.3,1.7-2c0.5-0.8,1-1.5,1.5-2.4L78.6,41.1z M64,40.2
			c0.9-0.3,1.8-0.7,2.6-1.4c0.8-0.7,1.5-1.4,2-2.3c0.5-0.9,0.9-1.9,1.1-2.9c0.2-1.1,0.2-2.1,0-3.2c-0.1-0.6-0.3-1.1-0.6-1.5
			c-0.3-0.3-0.6-0.5-1.1-0.4c-0.6,0.1-1.2,0.6-1.7,1.3c-0.5,0.7-0.9,1.7-1.3,2.8c-0.4,1.1-0.6,2.3-0.8,3.6
			C64.1,37.6,64,38.9,64,40.2z"/>
		<path id="XMLID_10_" class="st0" d="M108.7,35.3c-0.2,1.5-0.5,2.8-0.9,3.9c-0.4,1.1-0.8,2.1-1.3,2.9c-0.5,0.8-1,1.5-1.5,2
			c-0.5,0.6-1.1,1-1.6,1.3c-0.5,0.3-1.1,0.6-1.6,0.8c-0.5,0.2-1,0.3-1.5,0.4c-1.4,0.3-2.7,0.1-3.7-0.5c-1-0.6-1.7-1.7-2.2-3.2
			c-0.3,0.7-0.6,1.3-1,2c-0.4,0.6-0.8,1.3-1.4,1.8c-0.5,0.6-1.1,1-1.8,1.5c-0.7,0.4-1.5,0.7-2.4,0.9c-0.9,0.2-1.7,0.2-2.6,0.1
			s-1.7-0.4-2.4-1c-0.8-0.5-1.4-1.3-2-2.2c-0.6-1-1-2.2-1.3-3.7c-0.2-1.2-0.3-2.4-0.4-3.8c0-1.4,0.1-2.8,0.3-4.2s0.6-2.8,1.1-4.2
			c0.5-1.4,1.1-2.6,1.9-3.7c0.8-1.1,1.7-2.1,2.9-2.9c1.1-0.8,2.4-1.3,3.9-1.6c1.4-0.3,2.5-0.2,3.3,0.1c0.7,0.4,1.2,0.9,1.3,1.6
			l0.1,0.4l0-2.8l7.3-1.4l-0.3,18c0,0.3,0,0.6,0,0.9s0.1,0.6,0.1,0.8c0.3,1.5,1.1,2,2.5,1.8c0.5-0.1,0.9-0.3,1.3-0.7
			c0.4-0.3,0.7-0.8,1-1.3c0.3-0.5,0.5-1.1,0.6-1.7c0.2-0.6,0.3-1.3,0.3-2L108.7,35.3z M93.7,26.3c0-0.1-0.1-0.3-0.2-0.5
			c-0.1-0.2-0.3-0.4-0.5-0.6c-0.2-0.2-0.4-0.3-0.7-0.4c-0.3-0.1-0.6-0.1-1.1,0c-0.7,0.1-1.3,0.5-1.9,1.1c-0.5,0.6-1,1.3-1.4,2.2
			c-0.4,0.9-0.7,1.8-0.9,2.9c-0.2,1.1-0.4,2.1-0.5,3.2c-0.1,1.1-0.1,2.1-0.1,3.2c0,1,0.1,1.9,0.3,2.7c0.2,1,0.4,1.7,0.7,2.2
			c0.3,0.5,0.6,0.8,0.9,1.1s0.6,0.3,0.9,0.3c0.3,0,0.6,0,0.8-0.1c0.4-0.1,0.8-0.2,1.1-0.5c0.4-0.3,0.7-0.6,1.1-1.1
			c0.3-0.4,0.6-1,0.8-1.6c0.2-0.6,0.3-1.3,0.4-2.1L93.7,26.3z"/>
		<path id="XMLID_13_" class="st0" d="M138.1,29.6c-0.3,2.3-0.8,4.1-1.4,5.5c-0.6,1.4-1.3,2.5-2,3.3c-0.7,0.8-1.5,1.4-2.2,1.7
			s-1.4,0.6-2,0.7c-2.1,0.4-3.8,0.2-5.1-0.6c-1.3-0.8-2.1-2.1-2.4-4c-0.2-0.8-0.2-1.7-0.2-2.7l0-2.1c0-0.3,0-0.7,0-1
			c0-0.3-0.1-0.6-0.1-0.9c-0.1-0.7-0.4-1.3-0.7-1.7c-0.4-0.4-0.9-0.5-1.6-0.4c-0.6,0.1-1.1,0.4-1.7,0.9c-0.5,0.5-1.1,1-1.7,1.8
			l-0.2,13.1l-7.3,1.4l0.7-36l7.3-2.5l-0.3,18.6l8.3-9.6l5-1l-8.8,9c0.5-0.3,1.1-0.4,1.6-0.6c0.9-0.2,1.8-0.2,2.6,0
			c0.8,0.2,1.4,0.5,2,1c0.6,0.5,1,1,1.4,1.7c0.4,0.7,0.6,1.4,0.8,2.2c0.1,0.3,0.1,0.6,0.1,1c0,0.3,0,0.7,0,1l-0.1,2.6
			c0,0.3,0,0.6,0,0.9c0,0.3,0,0.5,0.1,0.8c0.1,0.5,0.3,0.9,0.7,1.3c0.3,0.3,0.9,0.4,1.7,0.3c0.5-0.1,1-0.3,1.4-0.6
			c0.4-0.3,0.7-0.7,0.9-1.1c0.3-0.5,0.5-1,0.6-1.6c0.2-0.6,0.3-1.3,0.5-2L138.1,29.6z"/>
		<path id="XMLID_15_" class="st0" d="M160.2,25.3c-0.5,1.3-1.1,2.6-1.8,3.9c-0.7,1.3-1.5,2.5-2.5,3.6c-1,1.1-2.1,2.1-3.4,2.9
			c-1.3,0.8-2.8,1.4-4.4,1.7c-1.2,0.2-2.3,0.3-3.4,0.2s-2-0.4-2.8-0.9c-0.8-0.5-1.5-1.2-2.1-2.2c-0.6-0.9-1-2.1-1.3-3.6
			c-0.2-1-0.3-2.1-0.4-3.4c0-1.3,0-2.7,0.2-4.1c0.2-1.4,0.5-2.8,0.9-4.3s1.1-2.7,1.9-4s1.8-2.3,3.1-3.1s2.7-1.5,4.5-1.8
			c1.1-0.2,2.1-0.3,2.9-0.1c0.8,0.1,1.4,0.4,1.9,0.7c0.5,0.4,0.9,0.8,1.2,1.4c0.3,0.6,0.5,1.1,0.6,1.8c0.3,1.5,0.2,2.9-0.2,4.3
			c-0.4,1.4-1,2.7-1.9,3.8c-0.9,1.2-2,2.2-3.3,3c-1.3,0.9-2.7,1.5-4.2,1.9c0,0.4,0.1,0.8,0.1,1.1c0,0.3,0.1,0.7,0.1,1
			c0.2,0.9,0.4,1.6,0.6,2.1c0.3,0.5,0.6,0.9,0.9,1.2s0.8,0.4,1.3,0.4c0.5,0,1,0,1.6-0.1c1-0.2,1.9-0.5,2.7-0.9
			c0.8-0.4,1.5-0.9,2.1-1.5c0.6-0.6,1.2-1.3,1.7-2c0.5-0.8,1-1.5,1.5-2.4L160.2,25.3z M145.7,24.4c0.9-0.3,1.8-0.7,2.6-1.4
			c0.8-0.7,1.5-1.4,2-2.3c0.5-0.9,0.9-1.9,1.1-2.9s0.2-2.1,0-3.2c-0.1-0.6-0.3-1.1-0.6-1.5c-0.3-0.3-0.6-0.5-1.1-0.4
			c-0.6,0.1-1.2,0.6-1.7,1.3c-0.5,0.7-0.9,1.7-1.3,2.8s-0.6,2.3-0.8,3.6C145.8,21.7,145.7,23.1,145.7,24.4z"/>
		<path id="XMLID_18_" class="st0" d="M161.4,34.5l0.5-26.4l7.3-1.4l0,3.3c0.4-0.5,0.7-1,1.1-1.4c0.4-0.5,0.8-0.9,1.3-1.3
			s0.9-0.7,1.4-1c0.5-0.3,1.1-0.5,1.7-0.6c0.6-0.1,1.1-0.1,1.6,0c0.5,0.1,0.9,0.3,1.3,0.6c0.4,0.3,0.7,0.7,0.9,1.1
			c0.2,0.4,0.4,0.9,0.5,1.4c0.1,0.4,0.1,0.9,0,1.4c-0.1,0.5-0.2,0.9-0.5,1.3c-0.2,0.4-0.6,0.8-1,1.1c-0.4,0.3-0.9,0.5-1.5,0.6
			c-0.5,0.1-0.9,0.1-1.2,0c-0.3-0.1-0.5-0.3-0.7-0.5s-0.3-0.5-0.4-0.8c-0.1-0.3-0.2-0.5-0.3-0.8c-0.1-0.2-0.2-0.4-0.4-0.6
			c-0.1-0.1-0.3-0.2-0.6-0.1c-0.8,0.2-1.4,0.5-1.9,0.9c-0.5,0.5-0.9,1-1.5,1.7l-0.3,20.1L161.4,34.5z"/>
		<path id="XMLID_20_" class="st0" d="M195,0c0.5,2.2,1,4.1,1.4,5.7c0.4,1.6,0.8,3,1.1,4.1c0.3,1.2,0.6,2.2,0.8,3s0.4,1.5,0.6,2.2
			s0.3,1.2,0.5,1.7c0.1,0.5,0.2,1.1,0.4,1.6c0.2,1.1,0.3,2.1,0.1,3.1s-0.4,1.8-0.8,2.5s-0.9,1.4-1.5,2c-0.6,0.6-1.2,1.1-1.9,1.5
			c-0.7,0.4-1.4,0.8-2.2,1.1s-1.5,0.5-2.2,0.6c-1.3,0.2-2.4,0.3-3.4,0.1c-1-0.2-1.9-0.6-2.6-1.1c-0.7-0.5-1.3-1.1-1.8-1.8
			c-0.4-0.7-0.7-1.5-0.9-2.2c-0.1-0.6-0.1-1.2-0.1-1.7c0.1-0.5,0.2-1,0.3-1.5c0.2-0.4,0.4-0.8,0.7-1.2c0.3-0.4,0.6-0.6,0.9-0.9
			c0.9-2.8,1.6-5.6,2.1-8.2c0.5-2.7,0.9-5.3,1.2-8L195,0z M185.1,22.4c0.2,1.2,0.6,2,1.2,2.5c0.6,0.5,1.4,0.6,2.6,0.4
			c0.6-0.1,1.1-0.3,1.6-0.6c0.5-0.3,0.9-0.6,1.3-1.1c0.3-0.5,0.6-1,0.7-1.6s0.1-1.4-0.1-2.3c-0.1-0.4-0.2-0.8-0.3-1.2
			c-0.1-0.4-0.2-0.8-0.3-1.3c-0.1-0.4-0.3-0.9-0.4-1.5c-0.2-0.6-0.4-1.2-0.6-1.9c-0.2-0.7-0.5-1.6-0.7-2.5c-0.3-1-0.6-2.1-0.9-3.4
			c-0.2,1.8-0.5,3.5-0.9,5.2c-0.4,1.7-0.9,3.4-1.4,5.2c0.4,0.1,0.7,0.3,1,0.5c0.3,0.2,0.5,0.6,0.5,1c0.1,0.3,0.1,0.6,0,0.9
			c0,0.3-0.1,0.6-0.3,0.9c-0.2,0.3-0.4,0.5-0.6,0.7s-0.5,0.3-0.9,0.4c-0.3,0.1-0.6,0.1-0.8,0C185.5,22.8,185.3,22.6,185.1,22.4z"/>
	</g>
	<polygon id="XMLID_2375_" class="st0" points="206.7,34.4 43.3,69.3 46.1,64.2 206.7,32.7 	"/>
</g>
</svg>
